<?xml version="1.0" encoding="utf-8"?>
<!-- Generator: Adobe Illustrator 15.0.0, SVG Export Plug-In . SVG Version: 6.00 Build 0)  -->
<!DOCTYPE svg PUBLIC "-//W3C//DTD SVG 1.1//EN" "http://www.w3.org/Graphics/SVG/1.1/DTD/svg11.dtd">
<svg version="1.1" id="Layer_1" xmlns="http://www.w3.org/2000/svg" xmlns:xlink="http://www.w3.org/1999/xlink" x="0px" y="0px"
	 width="102px" height="102px" viewBox="-5.255 -0.138 102 102" enable-background="new -5.255 -0.138 102 102"
	 xml:space="preserve">
<g>
	<g>
		
			<linearGradient id="SVGID_1_" gradientUnits="userSpaceOnUse" x1="46.1646" y1="689.8674" x2="46.1645" y2="591.0618" gradientTransform="matrix(1 0 0 1 0.0801 -588.7402)">
			<stop  offset="0" style="stop-color:#8DB947"/>
			<stop  offset="1" style="stop-color:#2593CB"/>
		</linearGradient>
		<path fill="url(#SVGID_1_)" d="M46.244,101.126c-1.312,0-2.605-0.34-3.741-0.983L5.338,79.109
			c-2.307-1.306-3.741-3.738-3.741-6.352V30.689c0-2.611,1.434-5.046,3.741-6.352L42.504,3.303c1.136-0.643,2.429-0.982,3.741-0.982
			c1.313,0,2.605,0.341,3.74,0.982l37.166,21.034c2.308,1.306,3.74,3.74,3.74,6.352v42.068c0,2.612-1.434,5.046-3.74,6.352
			l-37.166,21.034C48.851,100.787,47.556,101.126,46.244,101.126 M46.244,3.455c-1.109,0-2.202,0.288-3.162,0.831L5.917,25.319
			c-1.951,1.104-3.163,3.161-3.163,5.37v42.068c0,2.208,1.211,4.266,3.163,5.37l37.165,21.034c1.919,1.087,4.405,1.087,6.325,0
			l37.164-21.034c1.951-1.104,3.164-3.162,3.164-5.37V30.689c0-2.208-1.213-4.266-3.164-5.37L49.407,4.285
			C48.446,3.742,47.353,3.455,46.244,3.455"/>
		
			<linearGradient id="SVGID_2_" gradientUnits="userSpaceOnUse" x1="46.1655" y1="690.4641" x2="46.1655" y2="590.4641" gradientTransform="matrix(1 0 0 1 0.0801 -588.7402)">
			<stop  offset="0" style="stop-color:#8DB947"/>
			<stop  offset="1" style="stop-color:#2593CB"/>
		</linearGradient>
		<path fill="url(#SVGID_2_)" d="M46.244,101.723c-1.415,0-2.81-0.367-4.035-1.061L5.044,79.629C2.55,78.217,1,75.584,1,72.757
			V30.689c0-2.827,1.55-5.46,4.044-6.872L42.21,2.783c1.225-0.693,2.62-1.061,4.035-1.061s2.811,0.367,4.035,1.062l37.166,21.032
			c2.494,1.412,4.044,4.045,4.044,6.872v42.068c0,2.827-1.55,5.46-4.044,6.872L50.28,100.663
			C49.056,101.356,47.66,101.723,46.244,101.723z M46.244,4.052c-1.005,0-1.998,0.261-2.869,0.753L6.211,25.839
			c-1.764,0.998-2.859,2.855-2.859,4.85v42.068c0,1.994,1.095,3.853,2.859,4.851l37.165,21.034c0.853,0.483,1.845,0.738,2.869,0.738
			c1.023,0,2.016-0.255,2.869-0.738l37.164-21.034c1.765-0.998,2.861-2.856,2.861-4.851V30.689c0-1.994-1.097-3.852-2.861-4.85
			L49.112,4.805C48.242,4.313,47.25,4.052,46.244,4.052z"/>
	</g>
	<g>
		
			<linearGradient id="SVGID_3_" gradientUnits="userSpaceOnUse" x1="46.1646" y1="689.8674" x2="46.1645" y2="591.0618" gradientTransform="matrix(1 0 0 1 0.0801 -588.7402)">
			<stop  offset="0" style="stop-color:#8DB947"/>
			<stop  offset="1" style="stop-color:#2593CB"/>
		</linearGradient>
		<path fill="url(#SVGID_3_)" d="M46.244,101.126c-1.312,0-2.605-0.34-3.741-0.983L5.338,79.109
			c-2.307-1.306-3.741-3.738-3.741-6.352V30.689c0-2.611,1.434-5.046,3.741-6.352L42.504,3.303c1.136-0.643,2.429-0.982,3.741-0.982
			c1.313,0,2.605,0.341,3.74,0.982l37.166,21.034c2.308,1.306,3.74,3.74,3.74,6.352v42.068c0,2.612-1.434,5.046-3.74,6.352
			l-37.166,21.034C48.851,100.787,47.556,101.126,46.244,101.126z M46.244,3.455c-1.109,0-2.202,0.288-3.162,0.831L5.917,25.319
			c-1.951,1.104-3.163,3.161-3.163,5.37v42.068c0,2.208,1.211,4.266,3.163,5.37l37.165,21.034c1.919,1.087,4.405,1.087,6.325,0
			l37.164-21.034c1.951-1.104,3.164-3.162,3.164-5.37V30.689c0-2.208-1.213-4.266-3.164-5.37L49.407,4.285
			C48.446,3.742,47.353,3.455,46.244,3.455z"/>
		
			<linearGradient id="SVGID_4_" gradientUnits="userSpaceOnUse" x1="46.1655" y1="690.4641" x2="46.1655" y2="590.4641" gradientTransform="matrix(1 0 0 1 0.0801 -588.7402)">
			<stop  offset="0" style="stop-color:#8DB947"/>
			<stop  offset="1" style="stop-color:#2593CB"/>
		</linearGradient>
		<path fill="url(#SVGID_4_)" d="M46.244,101.723c-1.415,0-2.81-0.367-4.035-1.061L5.044,79.629C2.55,78.217,1,75.584,1,72.757
			V30.689c0-2.827,1.55-5.46,4.044-6.872L42.21,2.783c1.225-0.693,2.62-1.061,4.035-1.061s2.811,0.367,4.035,1.062l37.166,21.032
			c2.494,1.412,4.044,4.045,4.044,6.872v42.068c0,2.827-1.55,5.46-4.044,6.872L50.28,100.663
			C49.056,101.356,47.66,101.723,46.244,101.723z M46.244,4.052c-1.005,0-1.998,0.261-2.869,0.753L6.211,25.839
			c-1.764,0.998-2.859,2.855-2.859,4.85v42.068c0,1.994,1.095,3.853,2.859,4.851l37.165,21.034c0.853,0.483,1.845,0.738,2.869,0.738
			c1.023,0,2.016-0.255,2.869-0.738l37.164-21.034c1.765-0.998,2.861-2.856,2.861-4.851V30.689c0-1.994-1.097-3.852-2.861-4.85
			L49.112,4.805C48.242,4.313,47.25,4.052,46.244,4.052z"/>
	</g>
	<g>
		
			<linearGradient id="SVGID_5_" gradientUnits="userSpaceOnUse" x1="46.1655" y1="673.3293" x2="46.1655" y2="607.5989" gradientTransform="matrix(1 0 0 1 0.0801 -588.7402)">
			<stop  offset="0" style="stop-color:#8DB947"/>
			<stop  offset="1" style="stop-color:#2593CB"/>
		</linearGradient>
		<path fill="url(#SVGID_5_)" d="M39.098,84.588c-0.551,0-1.096-0.16-1.577-0.464L11.755,68.16c-0.91-0.575-1.453-1.577-1.453-2.681
			c0-1.103,0.543-2.104,1.453-2.68l6.638-4.198l-6.638-4.198c-0.91-0.574-1.453-1.576-1.453-2.68s0.543-2.104,1.453-2.68
			l6.638-4.198l-6.638-4.199c-0.91-0.575-1.453-1.577-1.453-2.68c0-1.104,0.543-2.105,1.453-2.68l25.766-15.965
			c0.481-0.304,1.026-0.465,1.577-0.465c1.677,0,3.041,1.41,3.041,3.146v7.627c0,1.086-0.557,2.114-1.453,2.68L20.343,44.845
			l9.901,6.262l14.417-9.118c0.953-0.603,2.212-0.603,3.166,0l14.417,9.117l9.901-6.262L51.81,32.314
			c-0.896-0.566-1.453-1.594-1.453-2.68v-7.627c0-0.868,0.33-1.671,0.928-2.264c0.566-0.562,1.336-0.883,2.111-0.883
			c0.551,0,1.098,0.161,1.578,0.466l25.76,15.96c0.91,0.574,1.453,1.576,1.453,2.68c0,1.103-0.543,2.104-1.453,2.68l-6.639,4.198
			l6.639,4.198c0.91,0.575,1.453,1.577,1.453,2.68c0,1.104-0.543,2.104-1.453,2.679L74.097,58.6l6.639,4.198
			c0.91,0.576,1.453,1.578,1.453,2.68c0,1.104-0.543,2.105-1.453,2.681l-25.76,15.96c-0.481,0.305-1.027,0.465-1.578,0.465
			c-1.678,0-3.041-1.411-3.041-3.146v-7.627c0-1.086,0.557-2.114,1.453-2.68l20.338-12.532l-9.902-6.261l-14.417,9.117
			c-0.954,0.604-2.213,0.604-3.166,0L30.244,52.34l-9.901,6.261l20.344,12.536c0.896,0.566,1.453,1.594,1.453,2.68v7.627
			C42.139,83.177,40.775,84.588,39.098,84.588 M19.368,59.218l-7.083,4.479c-0.605,0.384-0.966,1.051-0.966,1.783
			c0,0.733,0.361,1.4,0.966,1.783l25.767,15.964c0.326,0.206,0.678,0.312,1.047,0.312c0.974,0,2.024-0.801,2.024-2.094v-7.627
			c0-0.723-0.37-1.405-0.966-1.782L19.368,59.218z M73.122,59.218L52.339,72.031c-0.597,0.376-0.967,1.061-0.967,1.782v7.627
			c0,1.293,1.051,2.094,2.023,2.094c0.369,0,0.722-0.104,1.047-0.311l25.762-15.961c0.604-0.382,0.966-1.049,0.966-1.783
			c0-0.733-0.36-1.399-0.966-1.783L73.122,59.218z M31.219,51.723l13.973,8.836c0.633,0.4,1.47,0.4,2.104,0l13.973-8.836
			l-13.973-8.836c-0.635-0.401-1.472-0.4-2.104,0L31.219,51.723z M63.22,51.723l9.901,6.261l7.083-4.479
			c0.604-0.383,0.966-1.049,0.966-1.782c0-0.734-0.36-1.4-0.966-1.783l-7.083-4.479L63.22,51.723z M19.368,57.984l9.901-6.261
			l-9.901-6.261l-7.083,4.479c-0.605,0.382-0.966,1.048-0.966,1.782s0.361,1.4,0.966,1.783L19.368,57.984z M39.098,19.91
			c-0.369,0-0.721,0.104-1.047,0.31L12.284,36.185c-0.605,0.382-0.966,1.049-0.966,1.782c0,0.734,0.361,1.4,0.966,1.783l7.083,4.479
			l20.788-12.816c0.596-0.377,0.966-1.061,0.966-1.782v-7.627C41.122,20.709,40.072,19.91,39.098,19.91 M73.122,44.229l7.083-4.479
			c0.604-0.382,0.966-1.049,0.966-1.783c0-0.733-0.361-1.4-0.966-1.782l-25.761-15.96c-0.325-0.206-0.678-0.311-1.047-0.311
			c-0.518,0-1.031,0.215-1.41,0.589c-0.396,0.393-0.614,0.927-0.614,1.503l0.001,7.628c0,0.722,0.371,1.405,0.967,1.782
			L73.122,44.229z"/>
		
			<linearGradient id="SVGID_6_" gradientUnits="userSpaceOnUse" x1="46.1646" y1="673.927" x2="46.1645" y2="606.9983" gradientTransform="matrix(1 0 0 1 0.0801 -588.7402)">
			<stop  offset="0" style="stop-color:#8DB947"/>
			<stop  offset="1" style="stop-color:#2593CB"/>
		</linearGradient>
		<path fill="url(#SVGID_6_)" d="M39.098,85.186c-0.664,0-1.319-0.191-1.896-0.557L11.44,68.667
			c-1.088-0.688-1.735-1.879-1.735-3.188c0-1.309,0.647-2.5,1.73-3.185l5.841-3.694l-5.841-3.693
			c-1.083-0.685-1.73-1.875-1.73-3.185s0.647-2.5,1.73-3.185l5.841-3.693l-5.841-3.694c-1.083-0.685-1.73-1.875-1.73-3.185
			c0-1.311,0.647-2.5,1.73-3.186l25.771-15.968c0.572-0.361,1.228-0.555,1.892-0.555c2.006,0,3.638,1.679,3.638,3.742v7.627
			c0,1.289-0.663,2.51-1.731,3.185L21.469,44.852l8.774,5.548l14.098-8.916c1.126-0.713,2.678-0.713,3.805,0l14.098,8.915
			l8.773-5.548L51.496,32.822c-1.073-0.679-1.736-1.898-1.736-3.188v-7.627c0-1.028,0.394-1.982,1.105-2.688
			c0.678-0.67,1.6-1.055,2.532-1.055c0.664,0,1.319,0.193,1.896,0.558L81.049,34.78c1.089,0.688,1.735,1.88,1.735,3.188
			s-0.646,2.5-1.73,3.185l-5.841,3.693l5.841,3.694c1.084,0.685,1.73,1.875,1.73,3.185c0,1.311-0.646,2.5-1.73,3.186l-5.841,3.692
			l5.841,3.694c1.084,0.685,1.73,1.876,1.73,3.185c0,1.31-0.646,2.5-1.73,3.186l-25.766,15.96c-0.573,0.36-1.229,0.555-1.893,0.555
			c-2.006,0-3.639-1.679-3.639-3.742v-7.627c0-1.29,0.664-2.51,1.73-3.185l19.529-12.033l-8.773-5.548l-14.098,8.915
			c-1.127,0.713-2.678,0.713-3.805,0l-14.097-8.915l-8.774,5.548L41,70.628c1.073,0.679,1.737,1.898,1.737,3.188v7.627
			C42.737,83.507,41.104,85.186,39.098,85.186z M19.372,59.921l-6.769,4.28c-0.431,0.272-0.688,0.751-0.688,1.277
			c0,0.528,0.257,1.005,0.688,1.278l25.762,15.961c0.233,0.146,0.479,0.222,0.732,0.222c0.687,0,1.427-0.571,1.427-1.496v-7.627
			c0-0.521-0.264-1.009-0.688-1.277L19.372,59.921z M73.118,59.922L52.653,72.539c-0.42,0.264-0.684,0.754-0.684,1.273v7.627
			c0,0.924,0.741,1.496,1.428,1.496c0.254,0,0.5-0.073,0.728-0.218L79.89,66.754c0.426-0.271,0.685-0.748,0.685-1.275
			c0-0.526-0.257-1.005-0.688-1.277L73.118,59.922z M32.337,51.723l13.174,8.332c0.43,0.272,1.036,0.271,1.466,0l13.176-8.332
			l-13.176-8.332c-0.431-0.271-1.036-0.272-1.466,0L32.337,51.723z M64.337,51.723l8.785,5.556l6.764-4.276
			c0.432-0.273,0.688-0.751,0.688-1.278s-0.257-1.005-0.688-1.277l-6.764-4.277L64.337,51.723z M19.368,46.168l-6.764,4.276
			c-0.431,0.272-0.688,0.75-0.688,1.278s0.257,1.004,0.689,1.277l6.764,4.276l8.784-5.555L19.368,46.168z M39.098,20.506
			c-0.254,0-0.499,0.074-0.729,0.219l-25.77,15.967c-0.427,0.271-0.684,0.747-0.684,1.275s0.257,1.005,0.688,1.277l6.769,4.279
			l20.471-12.621c0.418-0.265,0.682-0.754,0.682-1.273v-7.627C40.525,21.078,39.784,20.506,39.098,20.506z M53.397,20.51
			c-0.36,0-0.722,0.152-0.988,0.417c-0.283,0.279-0.438,0.663-0.438,1.079v7.628c0,0.52,0.264,1.008,0.688,1.277l20.458,12.611
			l6.768-4.279c0.432-0.272,0.688-0.75,0.688-1.278c0-0.527-0.257-1.005-0.688-1.278L54.131,20.732
			C53.897,20.583,53.651,20.51,53.397,20.51z"/>
	</g>
	<g>
		
			<linearGradient id="SVGID_7_" gradientUnits="userSpaceOnUse" x1="46.1655" y1="673.3293" x2="46.1655" y2="607.5989" gradientTransform="matrix(1 0 0 1 0.0801 -588.7402)">
			<stop  offset="0" style="stop-color:#8DB947"/>
			<stop  offset="1" style="stop-color:#2593CB"/>
		</linearGradient>
		<path fill="url(#SVGID_7_)" d="M39.098,84.588c-0.551,0-1.096-0.16-1.577-0.464L11.755,68.16c-0.91-0.575-1.453-1.577-1.453-2.681
			c0-1.103,0.543-2.104,1.453-2.68l6.638-4.198l-6.638-4.198c-0.91-0.574-1.453-1.576-1.453-2.68s0.543-2.104,1.453-2.68
			l6.638-4.198l-6.638-4.199c-0.91-0.575-1.453-1.577-1.453-2.68c0-1.104,0.543-2.105,1.453-2.68l25.766-15.965
			c0.481-0.304,1.026-0.465,1.577-0.465c1.677,0,3.041,1.41,3.041,3.146v7.627c0,1.086-0.557,2.114-1.453,2.68L20.343,44.845
			l9.901,6.262l14.417-9.118c0.953-0.603,2.212-0.603,3.166,0l14.417,9.117l9.901-6.262L51.81,32.314
			c-0.896-0.566-1.453-1.594-1.453-2.68v-7.627c0-0.868,0.33-1.671,0.928-2.264c0.566-0.562,1.336-0.883,2.111-0.883
			c0.551,0,1.098,0.161,1.578,0.466l25.76,15.96c0.91,0.574,1.453,1.576,1.453,2.68c0,1.103-0.543,2.104-1.453,2.68l-6.639,4.198
			l6.639,4.198c0.91,0.575,1.453,1.577,1.453,2.68c0,1.104-0.543,2.104-1.453,2.679L74.097,58.6l6.639,4.198
			c0.91,0.576,1.453,1.578,1.453,2.68c0,1.104-0.543,2.105-1.453,2.681l-25.76,15.96c-0.481,0.305-1.027,0.465-1.578,0.465
			c-1.678,0-3.041-1.411-3.041-3.146v-7.627c0-1.086,0.557-2.114,1.453-2.68l20.338-12.532l-9.902-6.261l-14.417,9.117
			c-0.954,0.604-2.213,0.604-3.166,0L30.244,52.34l-9.901,6.261l20.344,12.536c0.896,0.566,1.453,1.594,1.453,2.68v7.627
			C42.139,83.177,40.775,84.588,39.098,84.588z M19.368,59.218l-7.083,4.479c-0.605,0.384-0.966,1.051-0.966,1.783
			c0,0.733,0.361,1.4,0.966,1.783l25.767,15.964c0.326,0.206,0.678,0.312,1.047,0.312c0.974,0,2.024-0.801,2.024-2.094v-7.627
			c0-0.723-0.37-1.405-0.966-1.782L19.368,59.218z M73.122,59.218L52.339,72.031c-0.597,0.376-0.967,1.061-0.967,1.782v7.627
			c0,1.293,1.051,2.094,2.023,2.094c0.369,0,0.722-0.104,1.047-0.311l25.762-15.961c0.604-0.382,0.966-1.049,0.966-1.783
			c0-0.733-0.36-1.399-0.966-1.783L73.122,59.218z M31.219,51.723l13.973,8.836c0.633,0.4,1.47,0.4,2.104,0l13.973-8.836
			l-13.973-8.836c-0.635-0.401-1.472-0.4-2.104,0L31.219,51.723z M63.22,51.723l9.901,6.261l7.083-4.479
			c0.604-0.383,0.966-1.049,0.966-1.782c0-0.734-0.36-1.4-0.966-1.783l-7.083-4.479L63.22,51.723z M19.368,57.984l9.901-6.261
			l-9.901-6.261l-7.083,4.479c-0.605,0.382-0.966,1.048-0.966,1.782s0.361,1.4,0.966,1.783L19.368,57.984z M39.098,19.91
			c-0.369,0-0.721,0.104-1.047,0.31L12.284,36.185c-0.605,0.382-0.966,1.049-0.966,1.782c0,0.734,0.361,1.4,0.966,1.783l7.083,4.479
			l20.788-12.816c0.596-0.377,0.966-1.061,0.966-1.782v-7.627C41.122,20.709,40.072,19.91,39.098,19.91z M73.122,44.229l7.083-4.479
			c0.604-0.382,0.966-1.049,0.966-1.783c0-0.733-0.361-1.4-0.966-1.782l-25.761-15.96c-0.325-0.206-0.678-0.311-1.047-0.311
			c-0.518,0-1.031,0.215-1.41,0.589c-0.396,0.393-0.614,0.927-0.614,1.503l0.001,7.628c0,0.722,0.371,1.405,0.967,1.782
			L73.122,44.229z"/>
		
			<linearGradient id="SVGID_8_" gradientUnits="userSpaceOnUse" x1="46.1646" y1="673.927" x2="46.1645" y2="606.9983" gradientTransform="matrix(1 0 0 1 0.0801 -588.7402)">
			<stop  offset="0" style="stop-color:#8DB947"/>
			<stop  offset="1" style="stop-color:#2593CB"/>
		</linearGradient>
		<path fill="url(#SVGID_8_)" d="M39.098,85.186c-0.664,0-1.319-0.191-1.896-0.557L11.44,68.667
			c-1.088-0.688-1.735-1.879-1.735-3.188c0-1.309,0.647-2.5,1.73-3.185l5.841-3.694l-5.841-3.693
			c-1.083-0.685-1.73-1.875-1.73-3.185s0.647-2.5,1.73-3.185l5.841-3.693l-5.841-3.694c-1.083-0.685-1.73-1.875-1.73-3.185
			c0-1.311,0.647-2.5,1.73-3.186l25.771-15.968c0.572-0.361,1.228-0.555,1.892-0.555c2.006,0,3.638,1.679,3.638,3.742v7.627
			c0,1.289-0.663,2.51-1.731,3.185L21.469,44.852l8.774,5.548l14.098-8.916c1.126-0.713,2.678-0.713,3.805,0l14.098,8.915
			l8.773-5.548L51.496,32.822c-1.073-0.679-1.736-1.898-1.736-3.188v-7.627c0-1.028,0.394-1.982,1.105-2.688
			c0.678-0.67,1.6-1.055,2.532-1.055c0.664,0,1.319,0.193,1.896,0.558L81.049,34.78c1.089,0.688,1.735,1.88,1.735,3.188
			s-0.646,2.5-1.73,3.185l-5.841,3.693l5.841,3.694c1.084,0.685,1.73,1.875,1.73,3.185c0,1.311-0.646,2.5-1.73,3.186l-5.841,3.692
			l5.841,3.694c1.084,0.685,1.73,1.876,1.73,3.185c0,1.31-0.646,2.5-1.73,3.186l-25.766,15.96c-0.573,0.36-1.229,0.555-1.893,0.555
			c-2.006,0-3.639-1.679-3.639-3.742v-7.627c0-1.29,0.664-2.51,1.73-3.185l19.529-12.033l-8.773-5.548l-14.098,8.915
			c-1.127,0.713-2.678,0.713-3.805,0l-14.097-8.915l-8.774,5.548L41,70.628c1.073,0.679,1.737,1.898,1.737,3.188v7.627
			C42.737,83.507,41.104,85.186,39.098,85.186z M19.372,59.921l-6.769,4.28c-0.431,0.272-0.688,0.751-0.688,1.277
			c0,0.528,0.257,1.005,0.688,1.278l25.762,15.961c0.233,0.146,0.479,0.222,0.732,0.222c0.687,0,1.427-0.571,1.427-1.496v-7.627
			c0-0.521-0.264-1.009-0.688-1.277L19.372,59.921z M73.118,59.922L52.653,72.539c-0.42,0.264-0.684,0.754-0.684,1.273v7.627
			c0,0.924,0.741,1.496,1.428,1.496c0.254,0,0.5-0.073,0.728-0.218L79.89,66.754c0.426-0.271,0.685-0.748,0.685-1.275
			c0-0.526-0.257-1.005-0.688-1.277L73.118,59.922z M32.337,51.723l13.174,8.332c0.43,0.272,1.036,0.271,1.466,0l13.176-8.332
			l-13.176-8.332c-0.431-0.271-1.036-0.272-1.466,0L32.337,51.723z M64.337,51.723l8.785,5.556l6.764-4.276
			c0.432-0.273,0.688-0.751,0.688-1.278s-0.257-1.005-0.688-1.277l-6.764-4.277L64.337,51.723z M19.368,46.168l-6.764,4.276
			c-0.431,0.272-0.688,0.75-0.688,1.278s0.257,1.004,0.689,1.277l6.764,4.276l8.784-5.555L19.368,46.168z M39.098,20.506
			c-0.254,0-0.499,0.074-0.729,0.219l-25.77,15.967c-0.427,0.271-0.684,0.747-0.684,1.275s0.257,1.005,0.688,1.277l6.769,4.279
			l20.471-12.621c0.418-0.265,0.682-0.754,0.682-1.273v-7.627C40.525,21.078,39.784,20.506,39.098,20.506z M53.397,20.51
			c-0.36,0-0.722,0.152-0.988,0.417c-0.283,0.279-0.438,0.663-0.438,1.079v7.628c0,0.52,0.264,1.008,0.688,1.277l20.458,12.611
			l6.768-4.279c0.432-0.272,0.688-0.75,0.688-1.278c0-0.527-0.257-1.005-0.688-1.278L54.131,20.732
			C53.897,20.583,53.651,20.51,53.397,20.51z"/>
	</g>
</g>
</svg>
