<?xml version="1.0" standalone="no"?>
<!DOCTYPE svg PUBLIC "-//W3C//DTD SVG 1.1//EN" "http://www.w3.org/Graphics/SVG/1.1/DTD/svg11.dtd">
<svg width="149px" height="136px" version="1.1" xmlns="http://www.w3.org/2000/svg" xmlns:xlink="http://www.w3.org/1999/xlink" xml:space="preserve" style="fill-rule:evenodd;clip-rule:evenodd;stroke-linejoin:round;stroke-miterlimit:1.41421;">
    <g>
        <g>
            <path d="M108.334,25.524L72.623,1.712L36.917,25.53L36.917,57.7L72.627,81.511L108.334,57.697ZM41.524,37.309L41.524,27.996L72.625,7.25L103.728,27.99L103.728,40.379L72.625,61.122L72.624,61.121L54.51,49.04L61.49,44.382L72.627,51.807L99.045,34.184L72.624,16.565L72.621,16.566ZM65.641,41.612L72.622,36.956L79.605,41.613L72.625,46.268ZM72.627,75.975L41.524,55.235L41.524,42.845L72.625,22.103L90.742,34.184L83.759,38.843L72.62,31.418L46.204,49.04L46.208,49.042L46.206,49.044L72.627,66.66L103.728,45.917L103.728,55.233Z" style="fill:white;fill-opacity:0.6;fill-rule:nonzero;"/>
        </g>
        <g>
            <path d="M64.29,110.328C64.29,107.414 62.349,105.779 59.589,105.779C56.574,105.779 54.735,107.824 54.837,110.225C54.94,112.831 56.933,113.904 60.253,114.873C64.188,115.947 68.582,117.071 68.786,122.947C68.991,128.007 64.901,131.684 59.69,131.684C55.248,131.684 50.34,128.872 50.291,123.099L54.021,123.099C54.173,126.879 56.984,128.568 59.742,128.568C62.911,128.568 65.108,126.215 65.056,123.408C64.954,120.288 62.91,119.013 58.158,117.632C54.225,116.458 51.158,114.873 51.055,110.532C51.055,105.574 54.991,102.662 59.641,102.662C63.473,102.662 67.764,104.757 68.02,110.327L64.29,110.327Z" style="fill:white;fill-opacity:0.603922;fill-rule:nonzero;"/>
            <path d="M74.919,93.109L78.699,93.109L78.699,98.372L74.919,98.372ZM74.919,103.431L78.699,103.431L78.699,130.919L74.919,130.919Z" style="fill:white;fill-opacity:0.603922;fill-rule:nonzero;"/>
            <path d="M84.371,117.123C84.371,109.459 90.094,102.663 98.931,102.663C107.824,102.663 113.545,109.459 113.545,117.175C113.545,124.89 107.823,131.633 98.931,131.633C90.094,131.633 84.371,124.89 84.371,117.175ZM88.101,117.226C88.101,123.458 92.852,128.161 98.931,128.161C105.063,128.161 109.766,123.459 109.766,117.176C109.766,110.891 105.063,106.189 98.931,106.189C92.852,106.189 88.101,110.891 88.101,117.176Z" style="fill:white;fill-opacity:0.603922;fill-rule:nonzero;"/>
            <path d="M119.317,131.421L119.317,115.631C119.317,110.733 123.305,106.746 128.206,106.746C133.104,106.746 137.091,110.732 137.091,115.631L137.091,131.421L140.961,131.421L140.961,115.631C140.961,108.587 135.25,102.878 128.206,102.878C121.16,102.878 115.449,108.587 115.449,115.631L115.449,131.421Z" style="fill:white;fill-opacity:0.603922;fill-rule:nonzero;"/>
            <path d="M43.881,102.901L43.881,118.689C43.881,123.588 39.895,127.574 34.993,127.574C30.097,127.574 26.108,123.589 26.108,118.689L26.108,106.265L22.24,106.265L22.24,118.69C22.24,125.736 27.951,131.447 34.993,131.447C42.039,131.447 47.752,125.736 47.752,118.69L47.752,102.901Z" style="fill:white;fill-opacity:0.603922;fill-rule:nonzero;"/>
            <path d="M18.299,96.731C18.273,96.731 18.25,96.729 18.223,96.729C13.324,96.729 9.338,100.713 9.338,105.613L9.338,131.169L5.467,131.169L5.467,105.613C5.467,98.568 11.178,92.857 18.223,92.857C18.25,92.857 18.272,92.861 18.299,92.861Z" style="fill:white;fill-opacity:0.603922;fill-rule:nonzero;"/>
            <rect x="5.613" y="106.265" width="20.497" height="3.824" style="fill:white;fill-opacity:0.603922;"/>
        </g>
    </g>
</svg>
