<?xml version="1.0" standalone="no"?>
<!DOCTYPE svg PUBLIC "-//W3C//DTD SVG 1.1//EN" "http://www.w3.org/Graphics/SVG/1.1/DTD/svg11.dtd" >
<svg xmlns="http://www.w3.org/2000/svg">
<metadata>
Created by FontForge 20120731 at Mon Feb 23 15:56:07 2015
 By Dovy
</metadata>
<defs>
<font id="fusion-icon" horiz-adv-x="512" >
  <font-face 
    font-family="fusion-icon"
    font-weight="500"
    font-stretch="normal"
    units-per-em="512"
    panose-1="2 0 6 9 0 0 0 0 0 0"
    ascent="448"
    descent="-64"
    bbox="-0.333333 -64.25 516 448.211"
    underline-thickness="25"
    underline-position="-52"
    unicode-range="U+F101-F176"
  />
<missing-glyph 
d="M17 0v341h136v-341h-136zM34 17h102v307h-102v-307z" />
    <glyph glyph-name=".notdef" 
d="M17 0v341h136v-341h-136zM34 17h102v307h-102v-307z" />
    <glyph glyph-name=".null" horiz-adv-x="0" 
 />
    <glyph glyph-name="nonmarkingreturn" 
 />
    <glyph glyph-name="uniF101" unicode="&#xf101;" 
d="M0 448zM68 285q-8 -7 -19 -6t-17.5 9.5t-5.5 19t9 17.5q19 17 30.5 25.5t35 19.5t45 11.5t54 -7.5t68.5 -28q28 -16 51.5 -23t39 -7.5t32.5 7.5t26.5 15t26.5 22q8 7 19 6t17.5 -9t5.5 -19t-9 -18q-20 -18 -33 -27t-37 -19t-49 -10q-51 0 -114 36q-35 19 -61 26
t-47.5 0.5t-34 -14.5t-33.5 -27zM444 229q8 7 19 6.5t17.5 -9t5.5 -19.5t-9 -17q-20 -18 -33 -27.5t-37 -19.5t-49 -10q-51 0 -114 36q-35 20 -61 27t-47.5 0t-34 -15t-33.5 -26q-8 -7 -19 -6.5t-17.5 9t-5.5 19.5t9 18q19 16 30.5 24.5t35 19.5t45 12t54 -7.5t68.5 -28.5
q35 -20 61 -27t47.5 0t34 15t33.5 26zM444 99q8 7 19 6t17.5 -9.5t5.5 -19t-9 -17.5q-20 -18 -33 -27.5t-37 -19t-49 -9.5q-51 0 -114 35q-35 20 -61 27t-47.5 0t-34 -14.5t-33.5 -26.5q-8 -7 -19 -6t-17.5 9t-5.5 19t9 18q19 17 30.5 25.5t35 19.5t45 11.5t54 -7.5
t68.5 -29q28 -16 51.5 -22.5t39 -7t32.5 7.5t26.5 15t26.5 22z" />
    <glyph glyph-name="uniF102" unicode="&#xf102;" 
d="M0 448zM464 142l-18 -123l-37 35q-69 -58 -162 -58t-162 56l-34 -32l-19 122l126 -18l-35 -34q54 -40 101 -40v202q-21 7 -34.5 25t-13.5 41q0 14 6 27t15.5 22t23 15t27.5 6q30 0 51.5 -20.5t21.5 -49.5q0 -23 -14 -41t-36 -26q1 -202 0 -202q44 0 99 43l-32 32z
M286 319q0 9 -5 17.5t-13.5 13.5t-19.5 5q-15 0 -26 -10.5t-11 -25.5t11 -25.5t26.5 -10.5t26.5 10.5t11 25.5z" />
    <glyph glyph-name="uniF103" unicode="&#xf103;" 
d="M400 415v-448q0 -13 -10 -21q-8 -10 -21 -10q-15 0 -23 10l-224 224q-10 8 -10 21q0 15 10 23l224 224q8 10 23 10q13 0 21 -10q10 -8 10 -23z" />
    <glyph glyph-name="uniF104" unicode="&#xf104;" 
d="M352 64q7 0 13 3q4 1 10 7q4 4 7 10q2 6 2 12q0 5 -2 13q-6 9 -7 10t-10 7q-8 2 -13 2h-192q-6 0 -12 -2q-6 -3 -10 -7q-6 -6 -7 -10q-3 -6 -3 -13q0 -8 3 -12q1 -4 7 -10t10 -7q4 -3 12 -3h192zM160 320q-6 0 -12 -2q-6 -3 -10 -7q-6 -6 -7 -10q-3 -6 -3 -13q0 -8 3 -12
q1 -4 7 -10t10 -7q4 -3 12 -3h96q7 0 13 3q4 1 10 7q4 4 7 10q2 6 2 12q0 5 -2 13q-6 9 -7 10t-10 7q-8 2 -13 2h-96zM479 256q7 0 13 -3q8 -6 11 -9q4 -4 7 -12q2 -10 2 -14v-117q0 -35 -13 -64q-14 -31 -35 -52q-22 -22 -53 -36q-30 -13 -65 -13h-180q-35 0 -64 13
q-30 13 -53 36t-36 52t-13 64v182q0 35 13 64q14 31 36 53q21 21 53 35q29 13 64 13h84q35 0 65 -12q31 -12 53 -33q21 -21 35 -51q13 -29 13 -64q0 -6 3 -12q2 -4 8 -10t11 -7q6 -3 12 -3h29z" />
    <glyph glyph-name="uniF105" unicode="&#xf105;" 
d="M0 448zM468 311q12 -16 5 -36l-78 -259q-6 -19 -22 -31t-35 -12h-264q-22 0 -42.5 15t-28.5 37q-6 20 0 37q0 1 1 7.5t1 10.5q0 2 -1 6t-1 6q1 3 2.5 6t4.5 6.5t5 6.5q6 11 12.5 26.5t8.5 25.5q1 3 0.5 9t-0.5 8q1 3 5 8t5 7q6 10 12 26t7 26q0 2 -1 8.5t1 8.5q1 3 6 8
t6 7q6 7 12.5 24t7.5 28q0 2 -1 7t0 7q0 3 2 5.5t5.5 6.5t4.5 6q3 4 5 9l4 10t5 10.5t5.5 9t7.5 6.5t10.5 3t13.5 -1v-1q10 2 14 2h218q21 0 32.5 -16t4.5 -37l-78 -259q-10 -34 -20.5 -43.5t-36.5 -9.5h-248q-8 0 -11 -5q-3 -4 -1 -12q7 -20 42 -20h263q9 0 16.5 4.5
t9.5 11.5l86 282q2 7 1 17q11 -5 17 -13zM164 311q-1 -4 1 -6.5t6 -2.5h173q4 0 7.5 2.5t4.5 6.5l6 18q1 4 -0.5 6.5t-5.5 2.5h-174q-3 0 -7 -2.5t-5 -6.5zM141 238q-2 -4 0 -6.5t6 -2.5h174q3 0 6.5 2.5t5.5 6.5l6 18q1 4 -1 6.5t-6 2.5h-173q-4 0 -7.5 -2.5t-4.5 -6.5z
" />
    <glyph glyph-name="uniF106" unicode="&#xf106;" 
d="M0 448zM461 397q21 0 36 -15t15 -36v-308q0 -21 -15 -36t-36 -15h-410q-21 0 -36 15t-15 36v308q0 21 15 36t36 15h410zM118 349q-8 0 -13.5 -5.5t-5.5 -13.5q0 -5 2.5 -9t7 -6.5t9.5 -2.5q8 0 13.5 5.5t5.5 13t-5.5 13t-13.5 5.5zM47 330q0 -8 6 -13t14 -5t13.5 5
t5.5 13q0 4 -1.5 7.5t-4 6t-6.5 4t-7 1.5q-8 0 -14 -5.5t-6 -13.5zM461 38v236h-410v-236h410zM461 315v31h-307v-31h307z" />
    <glyph glyph-name="uniF107" unicode="&#xf107;" 
d="M0 448zM213 391q-34 0 -64 -10q-29 -10 -51 -28q-41 -33 -41 -78q0 -24 13 -46q14 -23 40 -40q22 -14 25 -39q1 -4 1 -8q2 1 4 3q17 17 40 17q4 0 7 -1q13 -1 26 -1q34 0 65 10q29 10 50 28q42 33 42 77.5t-42 77.5q-21 18 -50 28q-31 10 -65 10zM213 448q58 0 107.5 -23
t78 -63t28.5 -87q0 -71 -62.5 -121.5t-151.5 -50.5q-16 0 -33 2q-22 -22 -48.5 -34.5t-49.5 -16.5t-54 -4v11q23 11 37.5 29t14.5 39q0 6 -1 12q-37 24 -58 59t-21 75q0 72 62.5 122.5t150.5 50.5zM443 61q0 -18 11 -33.5t30 -25.5v-9q-40 1 -70.5 10.5t-57.5 36.5
q-14 -2 -29 -2q-63 0 -113 31q100 0 171 58q35 28 55 66q20 39 20 82v14q52 -43 52 -103q0 -34 -18.5 -64t-50.5 -51v-10z" />
    <glyph glyph-name="uniF108" unicode="&#xf108;" 
d="M448 288v96h-96v-96h96zM448 0v224h-69q1 -2 1.5 -4l1 -4t1 -4.5t0.5 -3.5q0 -5 1 -8v-8q0 -29 -10 -50q-11 -24 -27 -40q-17 -17 -41 -28q-21 -10 -50 -10t-50 10q-25 12 -40 28q-16 15 -28 40q-10 21 -10 50q0 5 1 8q0 5 1 8q0 5 1 8q0 1 0.5 2.5l1 3t0.5 2.5h-69v-224
h384zM192 192q0 -3 1 -10q0 -10 6 -22t19 -22t38 -10t38 10t19 22q5 11 7 22v10q0 3 -1 10q-1 8 -8 22q-8 13 -20 22q-13 10 -35 10t-35 -10t-19 -22q-6 -10 -8 -22zM480 448q5 0 13 -2q9 -6 10 -7t7 -10q2 -8 2 -13v-448q0 -6 -2 -12q-3 -6 -7 -10q-5 -6 -10 -7
q-6 -3 -13 -3h-448q-8 0 -12 3q-4 1 -10 7t-7 10q-3 4 -3 12v448q0 7 3 13q1 5 7 10q4 4 10 7q6 2 12 2h448z" />
    <glyph glyph-name="uniF109" unicode="&#xf109;" 
d="M512 191q0 -70 -35 -128q-33 -59 -92 -93q-61 -36 -130 -34q-67 -2 -128 34q-58 33 -93 93q-34 59 -34 128q0 68 34 130q34 56 93 92q60 33 128 35q70 -2 130 -35q60 -36 92 -92q35 -61 35 -130zM437 190q0 51 -24 91q-25 44 -67 67q-40 26 -91 24q-49 2 -91 -24
q-41 -23 -65 -67q-24 -40 -24 -91q0 -47 24 -91q23 -37 65 -65q42 -23 91 -24q51 1 91 24q44 27 67 65q24 44 24 91zM391 219l-141 -141q-5 -5 -16 -7q-7 2 -15 7l-98 99q-5 6 -5 14t5 16l34 32q7 9 15 7q10 2 15 -7l49 -48l93 91q5 8 15 6q8 2 14 -6l35 -32q6 -10 6 -15
q0 -10 -6 -16z" />
    <glyph glyph-name="uniF10A" unicode="&#xf10a;" 
d="M0 448zM320 375h-238q-19 0 -32 -13.5t-13 -32.5v-238q0 -18 13 -31.5t32 -13.5h238q19 0 32.5 13.5t13.5 31.5v238q0 19 -13.5 32.5t-32.5 13.5zM402 329v-238q0 -34 -24 -58t-58 -24h-238q-34 0 -58 24t-24 58v238q0 34 24 58t58 24h238q34 0 58 -24t24 -58z" />
    <glyph glyph-name="uniF10B" unicode="&#xf10b;" 
d="M504 312l-250 -250q-7 -8 -18 -8q-10 0 -17 8l-133 132q-7 8 -7 17.5t7 17.5l35 34q7 8 17 8t17 -8l81 -81l199 199q8 7 19 7q10 0 17 -7l33 -34q8 -7 8 -17q0 -11 -8 -18zM433 162v-98q0 -37 -25.5 -63t-62.5 -26h-257q-36 0 -62 26t-26 63v256q0 37 26 63t62 26h257
q20 0 36 -8q4 -1 6 -7q0 -6 -3 -9l-15 -15q-4 -3 -8 -3q-1 0 -2 1q-5 1 -14 1h-257q-20 0 -34 -14t-14 -35v-256q0 -21 14 -35q15 -15 34 -15h257q19 0 34.5 15t15.5 35v77q0 4 2 8l20 19q2 4 7 4q3 0 4 -2q5 -1 5 -8z" />
    <glyph glyph-name="uniF10C" unicode="&#xf10c;" 
d="M35 323l221 -213l221 213q2 2 7 5q2 1 8 1q5 0 7 -1q5 -3 7.5 -5t4.5 -7q1 -2 1 -7q0 -6 -1 -8q-3 -5 -5 -7l-235 -233q-2 -2 -7 -5q-3 -1 -8 -1t-7 1q-5 2 -8 5l-235 233q-2 2 -5 7q-1 2 -1 8q0 5 1 7q2 5 4.5 7t7.5 5q2 1 8 1q5 0 7 -1q5 -3 7 -5z" />
    <glyph glyph-name="uniF10D" unicode="&#xf10d;" 
d="M387 -30l-1 1q3 -2 5 -7q0 -1 1 -3t1 -4q0 -3 -2.5 -8t-3.5 -8q-5 -2 -7 -3q-4 -3 -8 -2q-6 0 -8 2q-5 2 -7 4l-232 235q-2 2 -4 7q-2 2 -2 8q-1 3 2 8q1 2 3 7l234 233q2 4 6 6q1 0 3 0.5t3 0.5t2 1q1 0 8 -2q3 -1 6 -5q2 -2 5 -7q0 -1 1 -4t1 -4q0 -5 -2 -7
q-3 -5 -4 -8l-213 -219z" />
    <glyph glyph-name="uniF10E" unicode="&#xf10e;" 
d="M124 -30l213 222l-213 219q-1 3 -3 8q-3 3 -2 7q0 6 2 8q2 5 4 7q4 4 7 5q5 2 7 2q1 -1 2.5 -1t3 -0.5t2.5 -0.5q5 -2 6 -6l234 -233q2 -5 4 -7q2 -5 2 -8q0 -2 -1 -4.5t-1 -3.5q-2 -5 -5 -7l-232 -235q-2 -2 -7 -4q-2 -2 -8 -2q-4 -1 -7 2q-5 2 -8 3q-1 3 -3.5 8t-1.5 8
q0 5 2 7q2 5 4 7z" />
    <glyph glyph-name="uniF10F" unicode="&#xf10f;" 
d="M0 448zM256 428q98 0 167 -69t69 -167t-69 -167t-167 -69t-167 69t-69 167t69 167t167 69zM256 8q76 0 130 54t54 130t-54 130t-130 54t-130 -54t-54 -130q0 -50 24.5 -92.5t67 -67t92.5 -24.5zM274 325v-126l77 -76l-26 -26l-87 88v140h36z" />
    <glyph glyph-name="uniF110" unicode="&#xf110;" 
d="M0 448zM12 189.5q0 3.5 3 6.5l125 125q3 3 6.5 3t5.5 -3l14 -13q3 -3 3 -6.5t-3 -5.5l-106 -106l106 -106q3 -3 3 -6.5t-3 -5.5l-14 -14q-2 -2 -5.5 -2t-6.5 2l-125 126q-3 2 -3 5.5zM191 21l101 347q1 4 4 5.5t6 0.5l17 -5q3 -1 5 -4t1 -6l-100 -347q-2 -4 -5 -5.5
t-6 -0.5l-17 4q-3 1 -5 4t-1 7zM348 78q0 3 2 6l106 106l-106 106q-2 2 -2 5.5t2 6.5l14 13q3 3 6.5 3t5.5 -3l126 -125q2 -3 2 -6.5t-2 -5.5l-126 -126q-2 -2 -5.5 -2t-6.5 2l-14 14q-2 3 -2 6z" />
    <glyph glyph-name="uniF111" unicode="&#xf111;" 
d="M0 448zM46 9h173v329h-182v-320q0 -3 2.5 -6t6.5 -3zM439 18v320h-183v-329h174q3 0 6 3t3 6zM475 366v-348q0 -19 -13 -32t-32 -13h-384q-19 0 -32.5 13t-13.5 32v348q0 19 13.5 32t32.5 13h384q19 0 32 -13t13 -32z" />
    <glyph glyph-name="uniF112" unicode="&#xf112;" 
d="M0 448zM485 338q11 0 19 -8t8 -19v-348q0 -11 -8 -19t-19 -8h-275q-11 0 -19 8t-8 19v83h-156q-11 0 -19 8t-8 19v192q0 12 5.5 25.5t13.5 21.5l117 117q8 8 21.5 13.5t25.5 5.5h119q11 0 19 -8t8 -19v-94q20 11 37 11h119zM329 277l-85 -85h85v85zM146 387l-85 -85h85
v85zM202 202l91 91v118h-110v-118q0 -12 -8 -20t-20 -8h-118v-183h146v73q0 12 5.5 25.5t13.5 21.5zM475 -27v329h-109v-119q0 -12 -8 -20t-20 -8h-119v-182h256z" />
    <glyph glyph-name="uniF113" unicode="&#xf113;" 
d="M0 448zM3 31l21 101h85l-9 -42l121 -46l139 46l19 97h-345l17 85h345l11 55h-345l17 84h430l-76 -380l-230 -77z" />
    <glyph glyph-name="uniF114" unicode="&#xf114;" 
d="M0 448zM320 -64h-224q-14 0 -23 9t-9 23v448q0 13 9 22.5t23 9.5h224q53 0 90.5 -37.5t37.5 -90.5v-256q0 -53 -37.5 -90.5t-90.5 -37.5zM384 320q0 26 -19 45t-45 19h-176q-6 0 -11 -5t-5 -11v-352q0 -6 5 -11t11 -5h176q26 0 45 19t19 45v256z" />
    <glyph glyph-name="uniF115" unicode="&#xf115;" 
d="M248 306v-46h2h2h2h2q26 0 51.5 -3t47.5 -9q19 -5 45 -14q26 -12 37 -19q18 -11 32 -23q9 -9 23 -28q10 -13 15 -29t5 -32v-6v-6q0 -1 -1 -3q0 -3 -1 -4q-1 -2 -1 -6h-245v129q13 0 20 -1q3 -1 6 -1t6.5 -0.5t6 -1t8 -1t8 -1t7 -2t6.5 -1.5v-70h86q-4 18 -12 34
q-9 17 -28 31q-19 13 -48 21q-32 8 -74 8h-2h-2h-2h-2v-144h-245q0 4 -1 6t-1 7q-1 2 -1 6v6q0 16 5 32t15 29q11 14 24 27q16 15 31 24q14 8 23 12q16 8 25 11q23 7 28 9q13 4 29 6v47q2 0 5 0.5l6 1t5.5 0.5t8.5 0.5t9 1.5q2 0 8 0.5t9 1.5h17zM180 128v85q-22 -6 -37 -15
q-13 -8 -26 -21q-10 -10 -15 -23q-6 -15 -8 -26h86z" />
    <glyph glyph-name="uniF116" unicode="&#xf116;" 
d="M192 302v-144h22v144h-22zM490 302h22v-142h-22v142zM198 180h57v-22h-57v22zM454 180v-22h58v22h-58zM432 310v-22h80v22h-80zM192 310h81v-22h-81v22zM235 -10v-22h219v22h-219zM234 180h22v-212h-22v212zM448 180h22v-212h-22v212zM427 246v149h-149v-149h149z
M256 416h192v-192h-192v192zM192 180v120q-6 5 -20 17l-10.5 7t-11.5 8q-11 7 -23 12q-11 5 -21 5q-8 0 -20 -5q-13 -6 -22 -12q-16 -10 -23 -15q-15 -13 -20 -17v-120h171zM106 370q18 0 37 -9q13 -7 34 -21q23 -18 26 -21l10 -10v-150h-213v150l10 10q16 13 26 21
q22 14 35 21q18 9 35 9zM170 -11v43q0 10 -3 17q-4 8 -10 13q-7 6 -15 9q-9 3 -19 3h-34q-9 0 -17 -3q-9 -3 -15 -9q-7 -5 -10 -13q-4 -6 -4 -17v-43h127zM123 96q14 0 27 -5q10 -3 22 -14q9 -8 15 -20q5 -13 5 -25v-48q0 -4 -1 -6t-4 -5q-1 0 -3 -1t-3 -2q-4 -2 -6 -2h-137
q-2 0 -6 2t-5 3q-2 1 -4 5t-2 6v48q0 13 6 25q5 12 15 20q10 10 21 14q13 5 26 5h34zM352 89h26v-106h-26v106z" />
    <glyph glyph-name="uniF117" unicode="&#xf117;" 
d="M0 448zM279 109q0 -43 -28 -74.5t-74 -39.5v-50q0 -4 -2.5 -6.5t-6.5 -2.5h-39q-3 0 -6 2.5t-3 6.5v50q-19 3 -36.5 9t-29 12.5t-21 14t-13 11t-5.5 4.5q-4 6 0 12l29 39q2 2 7 3q4 1 7 -3q33 -28 70 -36q10 -2 21 -2q23 0 40.5 12t17.5 35q0 8 -4 15t-9.5 12t-17 11
t-19 9l-22.5 9q-11 5 -17.5 7.5t-17.5 7.5t-18 9t-16.5 10t-15 12t-12.5 14t-10.5 16.5t-6 19t-2.5 22.5q0 39 28 69t73 38v52q0 4 3 6.5t6 2.5h39q4 0 6.5 -2.5t2.5 -6.5v-50q16 -2 31.5 -7t25 -9.5t18 -10.5t11 -8.5l4.5 -4.5q5 -5 2 -10l-24 -42q-2 -4 -6 -5t-8 2
q-1 1 -4 3.5t-11 7.5t-17 9.5t-21.5 7.5t-24.5 3q-27 0 -44 -12t-17 -32q0 -7 2.5 -13.5t8.5 -12t11 -9.5t16 -9t17.5 -7.5l19.5 -7.5q16 -6 24 -9.5t21.5 -10t21.5 -12t17.5 -14.5t15 -18t9 -21.5t3.5 -27.5z" />
    <glyph glyph-name="uniF118" unicode="&#xf118;" 
d="M47 129q-5 5 -7 13q-3 7 -3 13.5t3 13.5q2 8 7 13q1 0 3.5 2t3.5 2q1 1 5 4q2 0 4 0.5t3 1.5h7h7q1 -1 3.5 -1.5t3.5 -1t3.5 -1.5t3.5 -2q3 -3 5 -4l120 -121v350q0 8 4 15q2 5 8 12q4 4 11 8q7 2 14 2q6 0 15 -2q10 -7 11 -8t8 -12q3 -9 3 -15v-350l120 121q3 3 12 8
q9 2 13.5 2t14.5 -2q9 -5 12.5 -8.5t7.5 -12.5q2 -9 2 -13.5t-2 -13.5q-4 -9 -8 -13l-183 -183q-5 -5 -12 -7q-7 -3 -14 -3t-14 3q-7 2 -12 7z" />
    <glyph glyph-name="uniF119" unicode="&#xf119;" 
d="M425 330l-1 -1t-2 -2.5t-2.5 -3.5t-3.5 -4q-6 -8 -23 -22q-16 -14 -37 -27q-24 -14 -53 -26q0 -1 1 -2.5l2 -3t1 -2.5q1 -2 2.5 -4t2 -4t1.5 -4.5t1.5 -3.5t2 -3.5t1.5 -4.5q0 -1 1 -2q0 -2 1 -3q0 -1 0.5 -2t1.5 -1v-3q29 3 54 3q28 -2 47 -3q8 -1 21.5 -2.5l13.5 -1.5
q14 -3 17 -3q-2 24 -4 38q-3 19 -9 35q-10 22 -16 33q-9 16 -21 30zM205 404l10 -14q0 -1 7.5 -11t12.5 -17q1 -1 10.5 -15.5t14.5 -23.5q9 -16 26 -47q30 10 51 24q25 16 35 25q10 7 20 20q2 2 4 4.5t3.5 4l1.5 1.5q-16 15 -31 24q-11 7 -35 17q-15 6 -38 11q-19 3 -41 3
h-13q-9 0 -13 -1q-2 0 -6 -0.5t-6 -1.5q-5 -1 -13 -3zM42 236q10 0 22 1q17 0 45 3q23 1 62 8q36 5 73 15q-9 16 -27 46q-5 9 -14.5 23.5t-10.5 15.5q-4 6 -10.5 15t-8.5 13q-2 3 -4.5 6t-4 5t-1.5 3q-22 -11 -42 -27q-22 -19 -36 -35q-15 -18 -27 -43t-16 -49zM94 45
q2 6 14 22q16 22 34 40q27 27 55 46q34 24 74 37q2 0 3 1h2q1 0 2 1h2q0 1 -1.5 4.5t-2 5t-2.5 4.5t-2 5q-3 5 -5 10q0 1 -5 8q-40 -12 -80 -18q-39 -8 -70 -9q-32 -3 -51 -3q-13 -1 -24 -1v-1v-2v-1v-2q0 -24 4 -41q5 -21 12 -38q9 -23 17 -36q11 -18 24 -32zM341 -10
q0 2 -1.5 10t-2.5 14q-1 4 -3.5 16.5t-4.5 20.5q-2 5 -4.5 14t-5 17.5t-4.5 16.5l-4.5 13.5t-5 14t-5.5 15t-5 14.5h-1h-1q-49 -18 -78 -38q-32 -23 -52 -43q-21 -22 -30 -37q-7 -11 -11 -19q17 -13 30 -19q14 -9 32 -15q16 -6 35 -9q18 -3 37 -3q15 0 23 1q16 2 22 4
q7 1 21 5q11 3 19 7zM472 157q-1 0 -15 4q-12 3 -30 6q-18 1 -42 3q-26 0 -49 -4q9 -24 18 -55q13 -46 13 -47q2 -8 4.5 -20t3.5 -15q2 -15 3 -19q19 13 35 29q17 19 27 35q13 20 20 39q7 20 12 44zM256 -64q-51 0 -99 20q-47 19 -82.5 55t-54.5 82q-20 48 -20 99
q0 52 20 100q19 45 55 81t82 55q48 20 99 20q52 0 100 -20q45 -19 81 -55t55 -81q20 -48 20 -100q0 -51 -20 -99q-19 -47 -55 -82q-36 -36 -81 -55q-48 -20 -100 -20z" />
    <glyph glyph-name="uniF11A" unicode="&#xf11a;" 
d="M0 448zM478 156q12 -23 8 -49l-18 -94q-1 -11 -10 -18.5t-20 -7.5h-364q-11 0 -19.5 7.5t-10.5 18.5l-18 94q-4 26 8 49l80 192q5 10 16 16.5t22 6.5h208q11 0 22 -6.5t16 -16.5zM443 89q1 7 -1.5 13.5t-8 10t-12.5 3.5h-330q-11 0 -17.5 -8t-4.5 -19l6 -38
q2 -12 10.5 -19.5t19.5 -7.5h302q11 0 19.5 7.5t10.5 19.5z" />
    <glyph glyph-name="uniF11B" unicode="&#xf11b;" 
d="M162 80l-150 98l92 74l152 -94zM256 158l152 94l92 -74l-150 -99zM512 340l-104 -88l-152 99l104 84zM348 32h2q1 0 2 1l1 1h1l63 41v-24l-161 -102l-161 102v24l62 -41h2q1 -1 2 -1q0 -1 1 -1h2q1 0 2 1h2q1 0 2 1q1 0 2 1l84 70l84 -70q1 -1 2 -1q1 -1 2 -1h2
q1 -1 2 -1zM152 435l104 -84l-152 -99l-104 88z" />
    <glyph glyph-name="uniF11C" unicode="&#xf11c;" 
d="M0 448zM261 434q6 -50 23 -93t36 -72t37 -56.5t30 -59t12 -65.5q0 -59 -42 -100.5t-101 -41.5t-101 41.5t-42 100.5q0 34 12 65.5t30 59t37 56.5t36 72t23 93q0 4 5 4t5 -4zM239 232q1 4 -1 7.5t-6.5 3.5t-6.5 -3q-6 -10 -20 -30q-13 -16 -19 -26t-15 -27t-13.5 -35
t-4.5 -38q0 -12 9 -21t21 -9t21 9t9 27q0 47 22 125q3 11 4 17z" />
    <glyph glyph-name="uniF11D" unicode="&#xf11d;" 
d="M0 448zM76.5 248q23.5 0 40 -16.5t16.5 -39.5t-16.5 -39.5t-40 -16.5t-40 16.5t-16.5 39.5t16.5 39.5t40 16.5zM256 248q15 0 28 -7.5t20.5 -20.5t7.5 -28t-7.5 -28t-20.5 -20.5t-28 -7.5q-23 0 -39.5 16.5t-16.5 39.5t16.5 39.5t39.5 16.5zM435.5 248q23.5 0 40 -16.5
t16.5 -39.5t-16.5 -39.5t-40 -16.5t-40 16.5t-16.5 39.5t16.5 39.5t40 16.5z" />
    <glyph glyph-name="uniF11E" unicode="&#xf11e;" 
d="M0 448zM0 18v311q0 19 13.5 32.5t32.5 13.5h420q19 0 32.5 -13.5t13.5 -32.5v-311q0 -19 -13.5 -32t-32.5 -13h-420q-19 0 -32.5 13t-13.5 32zM37 18q0 -3 2.5 -6t6.5 -3h420q4 0 6.5 3t2.5 6v220q-9 -11 -19 -19q-77 -59 -122 -97q-15 -12 -24 -19t-24.5 -14t-29.5 -7
t-29.5 7t-24.5 14t-24 19q-45 38 -122 97q-10 8 -19 19v-220zM37 329q0 -48 42 -81q55 -43 114 -91q2 -1 10 -8t13 -10.5t13 -9t14.5 -8t12.5 -2.5t12.5 2.5t14.5 8t13 9t13 10.5t10 8q59 48 114 91q16 12 29 33t13 38v7v3l-1 4l-1 2l-3 3h-4h-420q-4 0 -6.5 -2.5t-2.5 -6.5
z" />
    <glyph glyph-name="uniF11F" unicode="&#xf11f;" 
d="M0 448zM448 224v-288h-64v288h-8q-10 0 -17 7t-7 17v80q0 10 7 17t17 7h8v96h64v-96h8q10 0 17 -7t7 -17v-80q0 -10 -7 -17t-17 -7h-8zM384 320v-64h64v64h-64zM296 32h-8v-96h-64v96h-8q-10 0 -17 7t-7 17v80q0 10 7 17t17 7h8v288h64v-288h8q10 0 17 -7t7 -17v-80
q0 -10 -7 -17t-17 -7zM224 128v-64h64v64h-64zM136 224h-8v-288h-64v288h-8q-10 0 -17 7t-7 17v80q0 10 7 17t17 7h8v96h64v-96h8q10 0 17 -7t7 -17v-80q0 -10 -7 -17t-17 -7zM64 320v-64h64v64h-64z" />
    <glyph glyph-name="uniF120" unicode="&#xf120;" 
d="M0 448zM219.5 411q59.5 0 110 -29t80 -79.5t29.5 -110.5t-29.5 -110.5t-80 -79.5t-110 -29t-110 29t-80 79.5t-29.5 110.5t29.5 110.5t80 79.5t110 29zM256 55v54q0 4 -2.5 7t-6.5 3h-55q-3 0 -6 -3t-3 -7v-54q0 -4 3 -6.5t6 -2.5h55q4 0 6.5 2.5t2.5 6.5zM255 153l6 178
q0 3 -3 5t-7 2h-63q-4 0 -7 -2t-3 -5l5 -178q0 -2 3 -4.5t7 -2.5h53q4 0 6.5 2.5t2.5 4.5z" />
    <glyph glyph-name="uniF121" unicode="&#xf121;" 
d="M0 448zM256 183v-18q0 -4 -2.5 -7t-6.5 -3h-64v-64q0 -4 -2.5 -6.5t-6.5 -2.5h-19q-4 0 -6.5 2.5t-2.5 6.5v64h-64q-4 0 -6.5 3t-2.5 7v18q0 4 2.5 6.5t6.5 2.5h64v64q0 4 2.5 6.5t6.5 2.5h19q4 0 6.5 -2.5t2.5 -6.5v-64h64q4 0 6.5 -2.5t2.5 -6.5zM293 73v201
q0 12 -8 20t-20 8h-201q-11 0 -19 -8t-8 -20v-201q0 -11 8 -19t19 -8h201q12 0 20 8t8 19zM329 274v-201q0 -26 -18.5 -45t-45.5 -19h-201q-27 0 -45.5 19t-18.5 45v201q0 27 18.5 45.5t45.5 18.5h201q27 0 45.5 -18.5t18.5 -45.5z" />
    <glyph glyph-name="uniF122" unicode="&#xf122;" 
d="M0 448zM0 55v274q0 34 24 58t58 24h275q34 0 58 -24t24 -58v-274q0 -34 -24 -58t-58 -24h-275q-34 0 -58 24t-24 58zM81 100.5q0 -7.5 5 -12.5l29 -29q6 -6 13 -6t13 6l152 152l42 -41q5 -5 12 -5q4 0 8 1q11 5 11 17v137q0 7 -5.5 12.5t-13.5 5.5h-137q-12 0 -17 -11
q-4 -12 4 -20l42 -41l-153 -153q-5 -5 -5 -12.5z" />
    <glyph glyph-name="uniF123" unicode="&#xf123;" 
d="M0 448zM0 91v238q0 34 24 58t58 24h201q4 0 7 -2.5t3 -6.5v-18q0 -4 -3 -6.5t-7 -2.5h-201q-19 0 -32 -13.5t-13 -32.5v-238q0 -18 13 -31.5t32 -13.5h238q19 0 32.5 13.5t13.5 31.5v92q0 4 2.5 6.5t6.5 2.5h18q4 0 6.5 -2.5t2.5 -6.5v-92q0 -34 -24 -58t-58 -24h-238
q-34 0 -58 24t-24 58zM196 173.5q0 3.5 3 6.5l186 187l-50 50q-6 5 -6 12.5t5.5 13t12.5 5.5h147q7 0 12.5 -5.5t5.5 -12.5v-147q0 -7 -5.5 -12.5t-13 -5.5t-12.5 6l-50 50l-187 -186q-3 -3 -6.5 -3t-6.5 3l-32 32q-3 3 -3 6.5z" />
    <glyph glyph-name="uniF124" unicode="&#xf124;" 
d="M296 -64h-96v256h-64v88h64v52q0 24 5 49q5 22 16 36q11 15 31 23q21 8 52 8h72v-88h-44q-11 0 -20 -2q-8 -3 -10 -7q-3 -3 -4 -11q-1 -5 -1 -16v-44h79l-10 -88h-70v-256z" />
    <glyph glyph-name="uniF125" unicode="&#xf125;" 
d="M0 448zM109 -58q-3 -10 -14 -4q-8 4 -8 17q3 55 25 116q-29 45 -34 87t7 75q9 -28 29 -64t27 -33q4 2 0 42.5t-5.5 85.5t13.5 80q11 23 40.5 48.5t53.5 35.5q-13 -23 -17.5 -48t-1.5 -40.5t10 -15.5q6 -1 24 29.5t39 62t35 32.5q24 2 58.5 -15t41.5 -33q4 -10 3 -25
t-7.5 -32.5t-15.5 -26.5q-13 -13 -34 -20.5t-38.5 -10t-35.5 -5.5t-26 -7q-8 -5 5 -17q29 -25 91 -11q-18 -26 -41 -43t-43.5 -23t-38.5 -8.5t-29 -4t-12 -4.5q-1 -7 10.5 -17.5t30.5 -16.5t35 -1q-12 -23 -23.5 -36.5t-25.5 -19.5t-24.5 -8t-31.5 -3.5t-36 -3.5
q-10 -30 -21.5 -67.5t-14.5 -46.5z" />
    <glyph glyph-name="uniF126" unicode="&#xf126;" 
d="M0 448zM171 299h128v-43h-128v43zM171 213v22h192v-22h-192zM363 192v-21h-171v21h171zM363 128h-150v21h150v-21zM171 149v-64h64v-64h-64v-64h-64v64h-64v64h64v64h64zM85 405h363v-448h-206l22 43h141v363h-277v-171h-43v213z" />
    <glyph glyph-name="uniF127" unicode="&#xf127;" 
d="M0 448zM293 110v-19q0 -4 -3 -6.5t-7 -2.5h-201q-4 0 -6.5 2.5t-2.5 6.5v19q0 4 2.5 6.5t6.5 2.5h201q4 0 7 -2.5t3 -6.5zM293 183v-18q0 -4 -3 -7t-7 -3h-201q-4 0 -6.5 3t-2.5 7v18q0 4 2.5 6.5t6.5 2.5h201q4 0 7 -2.5t3 -6.5zM37 9h292v220h-119q-11 0 -19 8t-8 19
v119h-146v-366zM219 265h108q-3 8 -6 12l-90 89q-3 4 -12 7v-108zM366 256v-256q0 -11 -8 -19t-20 -8h-311q-11 0 -19 8t-8 19v384q0 11 8 19t19 8h183q12 0 25.5 -5.5t21.5 -13.5l89 -89q8 -8 14 -22t6 -25z" />
    <glyph glyph-name="uniF128" unicode="&#xf128;" 
d="M0 448zM452 348q11 -11 19.5 -31.5t8.5 -36.5v-304q0 -16 -12 -28t-28 -12h-368q-17 0 -28.5 12t-11.5 28v432q0 16 11.5 28t28.5 12h240q11 0 24 -4t25 -10.5t19 -13.5zM429 326l-71 71q-3 2 -6 5v-82h82q-3 3 -5 6zM448 -24v304q0 4 -1 8h-127v127q-4 1 -8 1h-240
q-8 0 -8 -8v-432q0 -8 8 -8h368q8 0 8 8z" />
    <glyph glyph-name="uniF129" unicode="&#xf129;" 
d="M0 448zM103 18v34q0 7 -5 12t-12 5h-34q-7 0 -12.5 -5t-5.5 -12v-34q0 -7 5.5 -12t12.5 -5h34q7 0 12 5t5 12zM103 121v34q0 7 -5 12.5t-12 5.5h-34q-7 0 -12.5 -5.5t-5.5 -12.5v-34q0 -7 5.5 -12t12.5 -5h34q7 0 12 5t5 12zM103 224v35q0 7 -5 12t-12 5h-34
q-7 0 -12.5 -5t-5.5 -12v-35q0 -7 5.5 -12t12.5 -5h34q7 0 12 5t5 12zM379 18v137q0 7 -5.5 12.5t-12.5 5.5h-206q-7 0 -12 -5.5t-5 -12.5v-137q0 -7 5 -12t12 -5h206q7 0 12.5 5t5.5 12zM103 328v34q0 7 -5 12t-12 5h-34q-7 0 -12.5 -5t-5.5 -12v-34q0 -7 5.5 -12.5
t12.5 -5.5h34q7 0 12 5.5t5 12.5zM482 18v34q0 7 -5 12t-12 5h-35q-7 0 -12 -5t-5 -12v-34q0 -7 5 -12t12 -5h35q7 0 12 5t5 12zM379 224v138q0 7 -5.5 12t-12.5 5h-206q-7 0 -12 -5t-5 -12v-138q0 -7 5 -12t12 -5h206q7 0 12.5 5t5.5 12zM482 121v34q0 7 -5 12.5t-12 5.5
h-35q-7 0 -12 -5.5t-5 -12.5v-34q0 -7 5 -12t12 -5h35q7 0 12 5t5 12zM482 224v35q0 7 -5 12t-12 5h-35q-7 0 -12 -5t-5 -12v-35q0 -7 5 -12t12 -5h35q7 0 12 5t5 12zM482 328v34q0 7 -5 12t-12 5h-35q-7 0 -12 -5t-5 -12v-34q0 -7 5 -12.5t12 -5.5h35q7 0 12 5.5t5 12.5z
M516 371v-362q0 -18 -12.5 -30.5t-30.5 -12.5h-430q-18 0 -30.5 12.5t-12.5 30.5v362q0 17 12.5 30t30.5 13h430q18 0 30.5 -13t12.5 -30z" />
    <glyph glyph-name="uniF12A" unicode="&#xf12a;" 
d="M0 448zM91 375q0 -21 -18 -32v-361q0 -4 -2.5 -6.5t-6.5 -2.5h-18q-4 0 -6.5 2.5t-2.5 6.5v361q-19 11 -19 32q0 15 11 25.5t26 10.5t25.5 -10.5t10.5 -25.5zM512 357v-218q0 -8 -3.5 -11.5t-11.5 -7.5q-61 -33 -105 -33q-18 0 -35.5 6t-31 13.5t-33 14t-40.5 6.5
q-55 0 -133 -42q-5 -3 -9 -3q-8 0 -13.5 5.5t-5.5 13.5v212q0 9 9 15q6 4 23 13q67 34 120 34q31 0 57.5 -8.5t62.5 -25.5q11 -5 25 -5q15 0 33.5 6t31.5 13.5t25 13.5t16 6q7 0 12.5 -5.5t5.5 -12.5z" />
    <glyph glyph-name="uniF12B" unicode="&#xf12b;" 
d="M288 192q0 23 9 44q9 20 24 35t36 24q20 9 43 9t44 -9q20 -9 35 -24t24 -35q9 -21 9 -44t-9 -43q-9 -21 -24 -36t-35 -24q-21 -9 -44 -9t-43 9q-21 9 -36 24t-24 36q-9 20 -9 43zM0 192q0 23 9 44q9 20 24 35t36 24q20 9 43 9t44 -9q20 -9 35 -24t24 -35q9 -21 9 -44
t-9 -43q-9 -21 -24 -36t-35 -24q-21 -9 -44 -9t-43 9q-21 9 -36 24t-24 36q-9 20 -9 43z" />
    <glyph glyph-name="uniF12C" unicode="&#xf12c;" 
d="M0 448zM384 320q26 0 45 -19t19 -45v-171q0 -26 -19 -45t-45 -19h-256q-26 0 -45 19t-19 45v214q0 26 19 45t45 19h85q18 0 30.5 -12.5t12.5 -30.5h128zM128 320q-9 0 -15 -6t-6 -15v-43h298q0 9 -6 15t-15 6h-128q-18 0 -30.5 12.5t-12.5 30.5h-85zM384 64q9 0 15 6
t6 15v150h-298v-150q0 -9 6 -15t15 -6h256z" />
    <glyph glyph-name="uniF12D" unicode="&#xf12d;" 
d="M0 448zM480.5 288q-13.5 0 -23 9.5t-9.5 22.5q0 26 -19 45t-45 19h-32q-13 0 -22.5 -9t-9.5 -23v-320q0 -13 9.5 -22.5t23 -9.5t22.5 -9t9 -22.5t-9 -23t-23 -9.5h-192q-13 0 -22.5 9t-9.5 23t9.5 23t22.5 9t22.5 9.5t9.5 22.5v320q0 14 -9 23t-23 9h-32q-26 0 -45 -19
t-19 -45q0 -13 -9 -22.5t-22.5 -9.5t-23 9.5t-9.5 22.5v96q0 13 9.5 22.5t22.5 9.5h448q13 0 22.5 -9.5t9.5 -22.5v-96q0 -14 -9 -23t-22.5 -9z" />
    <glyph glyph-name="uniF12E" unicode="&#xf12e;" 
d="M0 448zM48 0v400h400v-400h-400zM432 384h-368v-272h368v272zM432 96h-368v-80h368v80z" />
    <glyph glyph-name="uniF12F" unicode="&#xf12f;" 
d="M479 -47q1 -1 1 -3v-3v-2l-2 -4q-1 0 -2 -1l-2 -2q-2 0 -3 -1q-2 -1 -3 0l-180 -1v97l80 47q1 0 3 0.5t3 1.5q4 2 5 4q3 3 4 5q1 1 1 6q0 3 -1 6q-1 2 -4 5t-5 4q-3 1 -6 0l-80 -47v55l48 25q2 -1 6 1q2 1 5 4t4 5t1 5q0 5 -1 7q-3 3 -4 5q-1 1 -5 3q-1 0 -3 0.5t-3 1.5
l-48 -25v25q0 3 -1 6q-1 2 -4 5q-1 1 -5 2.5t-6 0.5l-32 1q-1 0 -3 -0.5t-3 -1.5q-4 -2 -5 -3q-2 -4 -3 -5q-2 -3 -2 -6v-100l-64 20q-3 1 -6 0q-2 -1 -5 -4q-1 -1 -3 -5l-2 -6q0 -4 2 -6q2 -4 3 -5q1 -2 5 -4q1 -1 3 -1.5t3 -0.5l64 -20v-108l-180 1q-1 -1 -3 0q-1 1 -2 1
t-3 2q-1 1 -2 1q-1 2 -1 4q-1 0 -1 2v3q0 2 1 3l213 487q0 2 2 4l2 2q1 1 3 1t3 1q1 -1 4 -1q2 0 3 -1l2 -2l2 -4z" />
    <glyph glyph-name="uniF130" unicode="&#xf130;" 
d="M0 448zM301 141q-41 0 -69.5 -2t-61 -9t-56 -20t-47 -36t-41.5 -56q2 10 6.5 27t25.5 60t49 75.5t80 59.5t114 27v99l185 -165l-185 -171v111z" />
    <glyph glyph-name="uniF131" unicode="&#xf131;" 
d="M400 191q0 -13 -10 -21l-224 -224q-8 -10 -23 -10q-12 0 -22 10q-9 9 -9 21v448q0 14 9 23q10 10 22 10q15 0 23 -10l224 -224q10 -8 10 -23z" />
    <glyph glyph-name="uniF132" unicode="&#xf132;" 
d="M511 228v-73q0 -5 -2 -7q-4 -6 -7 -5l-62 -10q-5 -17 -12 -31q17 -22 35 -46q3 -2 3 -8q0 -1 -1 -4q-1 -2 -1 -3q-6 -8 -34 -36q-21 -21 -30 -24q-2 1 -5 1.5t-5 1.5l-45 37q-18 -10 -30 -13q-5 -45 -11 -62q-2 -11 -11 -9l-74 -1q-1 0 -2.5 0.5l-3 1t-2.5 0.5l-4 8
l-10 62q-21 7 -29 13l-48 -37q0 -1 -1 -1.5t-3 -0.5t-4 -1q-3 1 -8 4q-43 40 -55 56q0 1 -1 3q-1 3 -1 4q0 5 2 8q5 7 18 22l17 23q-5 12 -12 33l-62 10q-4 0 -7 5q-2 2 -2 7v73q0 5 2 7q3 5 7 5l62 10q8 22 12 31q-6 10 -36 46q-2 2 -2 8l2 7q2 2 4.5 5t5.5 6t6.5 7t8 8.5
t8.5 9.5q23 21 31 24q2 -1 3.5 -1.5l3 -1t3.5 -1.5l45 -36q12 7 30 13q5 39 10 62q1 11 12 9l74 1q3 -1 8 -3q3 -4 3 -7l10 -62q20 -7 30 -13l48 37q0 1 1.5 1t3 0.5t3.5 1.5q4 -3 8 -4q39 -36 55 -56q2 -4 2 -7q0 -6 -2 -8q-4 -7 -18 -22q0 -1 -17 -23q6 -12 12 -33l62 -10
q4 0 7 -5q2 -2 2 -7zM341 192q0 35 -25 61q-24 23 -61 25q-35 -2 -59 -25q-26 -26 -26 -61q0 -37 26 -59q26 -28 59 -26q35 -2 61 26q25 22 25 59z" />
    <glyph glyph-name="uniF133" unicode="&#xf133;" 
d="M512 312v-32h-96v-96h-32v96h-96v32h96v96h32v-96h96zM150 226q14 0 24 6q8 5 17 17q7 10 10 26q3 13 1 31t-9 32q-9 18 -17 26q-11 12 -22 18q-11 8 -25 8q-11 0 -23 -6q-10 -5 -18 -16q-6 -10 -10 -25q-3 -14 -1 -32t9 -32q9 -18 17 -26q10 -12 22 -19q11 -8 25 -8z
M233 80q-1 6 -7 16q-5 6 -12 12l-15 12q-5 3 -20 14q-1 0 -2.5 0.5t-3 0.5t-2.5 0.5t-2.5 1t-3 0.5t-2.5 1h-8h-9q-17 0 -37 -4q-17 -6 -31 -16q-16 -12 -22 -22q-8 -14 -8 -28t7 -26.5t19 -23.5q10 -10 28 -15q16 -6 35 -6q27 0 46 6q17 5 30 14q12 11 16 22q5 16 5 27v4v4
v3q-1 1 -1 3zM280 408l-30 -21h-43q14 -6 19 -11q9 -9 14 -18q5 -13 8 -23q2 -16 2 -25q0 -8 -2 -20q-2 -8 -8 -19q-5 -10 -12 -17q-10 -10 -16 -14q-10 -8 -13 -11q-6 -6 -7 -9q-3 -5 -4 -8t-1 -10q0 -6 4 -11q3 -7 9 -11q5 -7 11 -11q5 -5 11 -9q12 -8 22 -18
q11 -13 15 -20q5 -13 8 -23q2 -16 2 -26q0 -18 -8 -35t-26 -32q-18 -14 -41 -22q-26 -8 -57 -8q-27 0 -53 6q-22 3 -43 16q-20 10 -30 24q-11 15 -11 32q0 19 10 36q12 20 28 32q17 12 42 22q26 8 52 8h6h6h5h6q-5 5 -7 8q-5 4 -6 8q-2 4 -4 9q-1 3 -1 11q0 4 1 8q0 4 1 6
q0 2 2 6q1 1 1.5 3t0.5 3h-2h-3q-1 -1 -3 -1h-4q-21 0 -42 8q-18 6 -32 21q-12 12 -20 30q-8 20 -8 38q0 21 10 38q13 21 26 32q17 13 37 20q22 8 44 8h35h44h39h16z" />
    <glyph glyph-name="uniF134" unicode="&#xf134;" 
d="M0 448zM416.5 -64q-13.5 0 -22.5 9t-9 23v176q0 6 -5 11t-11 5h-225q-6 0 -11 -5t-5 -11v-176q0 -14 -9 -23t-22.5 -9t-23 9t-9.5 23v448q0 13 9.5 22.5t23 9.5t22.5 -9.5t9 -22.5v-176q0 -6 5 -11t11 -5h225q6 0 11 5t5 11v176q0 13 9 22.5t22.5 9.5t23 -9.5t9.5 -22.5
v-448q0 -14 -9.5 -23t-23 -9z" />
    <glyph glyph-name="uniF135" unicode="&#xf135;" 
d="M0 448zM448 -64h-384q-26 0 -45 19t-19 45v384q0 26 19 45t45 19h384q26 0 45 -19t19 -45v-384q0 -26 -19 -45t-45 -19zM352 304q0 6 -5 11t-11 5t-11 -5t-5 -11v-104q0 -4 -2.5 -6t-5.5 -2h-112q-4 0 -6 2.5t-2 5.5v104q0 6 -4.5 11t-11.5 5t-11.5 -5t-4.5 -11v-224
q0 -6 4.5 -11t11.5 -5t11.5 5t4.5 11v72q0 4 2 6t6 2h112q3 0 5.5 -2.5t2.5 -5.5v-72q0 -6 5 -11t11 -5t11 5t5 11v224z" />
    <glyph glyph-name="uniF136" unicode="&#xf136;" 
d="M0 448zM366 -9.5q0 7.5 -5.5 13t-13 5.5t-13 -5.5t-5.5 -13t5.5 -12.5t13 -5t13 5t5.5 12.5zM402 209q0 54 -47 54q-8 0 -16 -1q-5 8 -15.5 13t-21 5t-19.5 -5q-14 15 -34 15q-7 0 -16 -2.5t-14 -7.5v95q0 15 -10.5 25.5t-25.5 10.5t-26 -11t-11 -25v-165q-5 0 -13.5 4.5
t-16 9.5t-19.5 9.5t-24 4.5q-19 0 -27.5 -13t-8.5 -33q0 -7 39 -26q13 -7 19 -10q18 -12 41 -32q23 -21 31 -29q16 -20 16 -40v-9h183v9q0 20 9 47.5t18 55.5t9 51zM439 211q0 -38 -20 -92q-17 -47 -17 -64v-82q0 -16 -10.5 -26.5t-25.5 -10.5h-183q-15 0 -26 10.5t-11 26.5
v82q0 3 -1 6t-4 6.5t-5.5 6.5t-6.5 7l-6 6t-6 5.5t-5 3.5q-21 19 -37 29q-6 4 -17.5 9.5t-20.5 10.5t-18 11.5t-14 15.5t-5 20q0 36 19 59t54 23q20 0 37 -6v107q0 30 21.5 51.5t51.5 21.5t51.5 -21.5t21.5 -51.5v-48q18 -2 34 -11q6 1 12 1q29 0 51 -17q40 0 63 -24.5
t23 -64.5z" />
    <glyph glyph-name="uniF137" unicode="&#xf137;" 
d="M0 448zM48 384h400v-400h-400v400zM432 0v272h-368v-272h368zM432 288v80h-368v-80h368z" />
    <glyph glyph-name="uniF138" unicode="&#xf138;" 
d="M512 192q0 -16 -1 -23q0 -3 -0.5 -7t-1.5 -8t-1 -7q-1 -7 -5 -21l-6 -21q2 -5 6 -13q4 -11 5 -14q0 -2 1 -6.5t2 -7.5q1 -5 1 -16q0 -19 -4 -32q-3 -11 -13 -29q-7 -11 -21 -23q-8 -7 -26 -17v202q2 -1 4 -2.5t4 -1.5q1 0 3 -1.5t4 -2.5q1 -1 3 -2.5t3 -1.5l6 -6
q1 3 3 11q0 7 1 11q0 8 1 12v11q0 45 -17 87q-18 41 -48 72q-31 30 -72 48q-42 17 -87 17t-87 -17q-41 -18 -71 -48q-31 -31 -48 -72q-18 -41 -18 -87q0 -8 1 -11q0 -8 1 -12q0 -8 1 -11q0 -5 2 -11l6 6q1 0 3 1.5t4 2.5l2.5 1.5t4.5 2.5q1 0 3 1.5t4 2.5v-202
q-18 10 -26 17q-14 12 -20 23q-9 13 -13 29q-5 17 -5 32q0 11 1 16q0 2 1 6.5t2 7.5t5 14q4 8 6 13l-6 21q-4 14 -5 21q-1 4 -2 11.5t-1 10.5q-1 7 -1 23q0 52 20 100q19 45 55 81q35 36 82 55q48 20 99 20q52 0 100 -20q45 -19 81 -55t55 -81q20 -48 20 -100zM384 160h16h4
h4h4q1 -1 4 -1v-222h-4q-1 -1 -4 -1h-4h-4h-16v224zM96 159q3 0 4 1h4h4h4h16v-224h-16h-4h-4q-3 0 -4 1h-4v222z" />
    <glyph glyph-name="uniF139" unicode="&#xf139;" 
d="M0 448zM0 278q0 63 36.5 98t100.5 35q17 0 35.5 -6t34.5 -16.5t27.5 -19.5t21.5 -19q10 10 21.5 19t27.5 19.5t34.5 16.5t35.5 6q64 0 100.5 -35t36.5 -98t-65 -129l-178 -171q-6 -5 -13 -5t-13 5l-178 172q-3 2 -8 7t-15.5 18.5t-19.5 28t-15.5 35t-6.5 39.5zM37 278
q0 -48 53 -102l166 -160l166 160q53 54 53 102q0 23 -6 40.5t-15.5 28t-23 17t-27 9t-28 2.5t-32 -7.5t-32 -18.5t-24.5 -20.5t-17 -17.5q-5 -6 -14 -6t-14 6q-7 8 -17 17.5t-24.5 20.5t-32 18.5t-32 7.5t-28 -2.5t-27 -9t-23 -17t-15.5 -28t-6 -40.5z" />
    <glyph glyph-name="uniF13A" unicode="&#xf13a;" 
d="M0 448zM0 384h512v-416h-512v416zM480 0v352h-448v-352h448zM352 272q0 20 14 34t34 14t34 -14t14 -34t-14 -34t-34 -14t-34 14t-14 34zM448 32h-384l96 256l128 -160l64 48z" />
    <glyph glyph-name="uniF13B" unicode="&#xf13b;" 
d="M0 448zM64 320h448v-320h-448v320zM480 53v235h-384v-256l192 160l55 -92l73 60zM128 208q0 20 14 34t34 14t34 -14t14 -34t-14 -34t-34 -14t-34 14t-14 34zM448 384v-32h-416v-288h-32v320h448z" />
    <glyph glyph-name="uniF13C" unicode="&#xf13c;" 
d="M0 448zM496 32q6 0 11 -5t5 -11v-64q0 -6 -5 -11t-11 -5h-64q-6 0 -11 5t-5 11v16h-320v-16q0 -6 -5 -11t-11 -5h-64q-6 0 -11 5t-5 11v64q0 6 5 11t11 5h16v320h-16q-6 0 -11 5t-5 11v64q0 6 5 11t11 5h64q6 0 11 -5t5 -11v-16h320v16q0 6 5 11t11 5h64q6 0 11 -5t5 -11
v-64q0 -6 -5 -11t-11 -5h-16v-320h16zM32 -24q0 -4 2.5 -6t5.5 -2h16q4 0 6 2.5t2 5.5v16q0 4 -2.5 6t-5.5 2h-16q-4 0 -6 -2.5t-2 -5.5v-16zM64 408q0 4 -2.5 6t-5.5 2h-16q-4 0 -6 -2.5t-2 -5.5v-16q0 -4 2.5 -6t5.5 -2h16q4 0 6 2.5t2 5.5v16zM416 368v16h-320v-16
q0 -6 -5 -11t-11 -5h-16v-320h16q6 0 11 -5t5 -11v-16h320v16q0 6 5 11t11 5h16v320h-16q-6 0 -11 5t-5 11zM480 408q0 4 -2.5 6t-5.5 2h-16q-4 0 -6 -2.5t-2 -5.5v-16q0 -4 2.5 -6t5.5 -2h16q4 0 6 2.5t2 5.5v16zM472 0h-16q-4 0 -6 -2.5t-2 -5.5v-16q0 -4 2.5 -6t5.5 -2
h16q4 0 6 2.5t2 5.5v16q0 4 -2.5 6t-5.5 2zM238 140l75 76q9 9 23 9t23 -9l25 -25v-127h-70zM176 224q-20 0 -34 14t-14 34t14 34t34 14t34 -14t14 -34t-14 -34t-34 -14zM184 151l86 -87h-142v78l9 9q9 9 23 9t24 -9z" />
    <glyph glyph-name="uniF13D" unicode="&#xf13d;" 
d="M0 448zM51 448h70v-448h346v-64h-416v512z" />
    <glyph glyph-name="uniF13E" unicode="&#xf13e;" 
d="M0 448zM0 64l256 -64l256 64v-64l-256 -64l-256 64v64zM0 192l256 -64l256 64v-64l-256 -64l-256 64v64zM0 320l256 -64l256 64v-64l-256 -64l-256 64v64zM0 448l256 -64l256 64v-64l-256 -64l-256 64v64z" />
    <glyph glyph-name="uniF13F" unicode="&#xf13f;" 
d="M337 325.5q0 -4.5 -3 -8.5l-126 -126l126 -125q3 -4 3 -8t-3 -7l-16 -17q-4 -2 -8 -2q-2 0 -6 2l-150 151q-3 1 -3 6t3 8l150 150q3 3 6 3q5 0 8 -3l16 -16q3 -3 3 -7.5zM361 325.5q0 -4.5 -3 -8.5l-126 -126l126 -125q3 -4 3 -8t-3 -7l-16 -17q-4 -2 -8 -2q-2 0 -6 2
l-150 151q-3 1 -3 6t3 8l150 150q3 3 6 3q5 0 8 -3l16 -16q3 -3 3 -7.5z" />
    <glyph glyph-name="uniF140" unicode="&#xf140;" 
d="M0 448zM201 72q8 7 18.5 7t18 -7.5t7 -18t-7.5 -17.5l-21 -21q-28 -28 -68 -28t-68.5 28t-28.5 68t29 68l76 76q35 35 73 40t66 -23q7 -7 7 -17.5t-7.5 -18t-18 -7.5t-17.5 7q-25 25 -67 -17l-77 -76q-13 -13 -13 -31.5t13.5 -32t32.5 -13.5t32 13zM432 366
q29 -28 29 -68t-29 -68l-81 -81q-38 -38 -77 -38q-31 0 -57 26q-7 7 -7 17.5t7.5 18t18 7.5t17.5 -7q25 -25 62 12l82 81q13 13 13 32t-13.5 32t-29 15.5t-30.5 -10.5l-26 -26q-8 -7 -18.5 -7t-18 7.5t-7 18t7.5 17.5l26 26q27 27 64.5 25.5t66.5 -30.5z" />
    <glyph glyph-name="uniF141" unicode="&#xf141;" 
d="M178 180v-1v33q-1 8 -1 28q-1 10 -1 28q-1 8 -1 24h95l5 -48l2 -1q4 8 15 19q8 8 23 18q14 9 31 15q18 4 40 6q29 -2 50 -10q25 -10 40 -28q17 -21 27 -47q9 -29 9 -68v-208h-110v196q0 16 -3 31q-3 13 -9 24q-8 10 -17 15q-11 6 -26 5q-11 1 -20 -3q-7 -4 -17 -9
q-6 -5 -11 -13q-6 -10 -8 -15l-2 -6q-1 -3 -1 -7q-1 -4 -1 -8v-8v-202h-109v240zM3 -60v352h109v-352h-109zM116 390q0 -12 -4 -21q-5 -11 -12 -19q-6 -5 -18 -11q-13 -5 -25 -4q-11 -1 -23 4.5t-18 10.5q-7 8 -12 18q-4 10 -4 22t4 22q5 10 12 16q7 7 19 12q8 3 23 4
q18 -1 25 -4q9 -3 17 -12q7 -6 12 -16q4 -10 4 -22z" />
    <glyph glyph-name="uniF142" unicode="&#xf142;" 
d="M0 448zM110 110v-19q0 -3 -3 -6t-6 -3h-19q-3 0 -6 3t-3 6v19q0 3 3 6t6 3h19q3 0 6 -3t3 -6zM110 183v-18q0 -4 -3 -7t-6 -3h-19q-3 0 -6 3t-3 7v18q0 4 3 6.5t6 2.5h19q3 0 6 -2.5t3 -6.5zM110 256v-18q0 -4 -3 -6.5t-6 -2.5h-19q-3 0 -6 2.5t-3 6.5v18q0 4 3 6.5
t6 2.5h19q3 0 6 -2.5t3 -6.5zM439 110v-19q0 -3 -3 -6t-6 -3h-275q-3 0 -6 3t-3 6v19q0 3 3 6t6 3h275q3 0 6 -3t3 -6zM439 183v-18q0 -4 -3 -7t-6 -3h-275q-3 0 -6 3t-3 7v18q0 4 3 6.5t6 2.5h275q3 0 6 -2.5t3 -6.5zM439 256v-18q0 -4 -3 -6.5t-6 -2.5h-275q-3 0 -6 2.5
t-3 6.5v18q0 4 3 6.5t6 2.5h275q3 0 6 -2.5t3 -6.5zM475 55v238q0 3 -2.5 6t-6.5 3h-420q-4 0 -6.5 -3t-2.5 -6v-238q0 -4 2.5 -6.5t6.5 -2.5h420q4 0 6.5 2.5t2.5 6.5zM512 366v-311q0 -19 -13.5 -32.5t-32.5 -13.5h-420q-19 0 -32.5 13.5t-13.5 32.5v311q0 19 13.5 32
t32.5 13h420q19 0 32.5 -13t13.5 -32z" />
    <glyph glyph-name="uniF143" unicode="&#xf143;" 
d="M0 448zM110 46q0 -23 -16 -39t-39 -16t-39 16t-16 39t16 39t39 16t39 -16t16 -39zM110 192q0 -23 -16 -39t-39 -16t-39 16t-16 39t16 39t39 16t39 -16t16 -39zM512 73v-55q0 -3 -2.5 -6t-6.5 -3h-348q-3 0 -6 3t-3 6v55q0 4 3 6.5t6 2.5h348q4 0 6.5 -2.5t2.5 -6.5z
M110 338q0 -23 -16 -39t-39 -16t-39 16t-16 39t16 39t39 16t39 -16t16 -39zM512 219v-54q0 -4 -2.5 -7t-6.5 -3h-348q-3 0 -6 3t-3 7v54q0 4 3 7t6 3h348q4 0 6.5 -3t2.5 -7zM512 366v-55q0 -4 -2.5 -6.5t-6.5 -2.5h-348q-3 0 -6 2.5t-3 6.5v55q0 3 3 6t6 3h348q4 0 6.5 -3
t2.5 -6z" />
    <glyph glyph-name="uniF144" unicode="&#xf144;" 
d="M0 448zM192 288l-96 -128l-96 128h64v32q0 40 28 68t68 28h192q40 0 68 -28t28 -68v-32h-64v32q0 13 -9.5 22.5t-22.5 9.5h-192q-13 0 -22.5 -9.5t-9.5 -22.5v-32h64zM416 224l96 -128h-64v-32q0 -40 -28 -68t-68 -28h-192q-40 0 -68 28t-28 68v32h64v-32
q0 -13 9.5 -22.5t22.5 -9.5h192q13 0 22.5 9.5t9.5 22.5v32h-64z" />
    <glyph glyph-name="uniF145" unicode="&#xf145;" 
d="M0 448zM437 373l75 75v-192h-192l72 72q-57 56 -136 56q-61 0 -110 -34.5t-70 -90.5l-60 23q28 74 93.5 120t146.5 46q106 0 181 -75zM256 0q61 0 110 34.5t70 90.5l60 -23q-28 -74 -93.5 -120t-146.5 -46q-106 0 -181 75l-75 -75v192h192l-72 -72q56 -56 136 -56z" />
    <glyph glyph-name="uniF146" unicode="&#xf146;" 
d="M256 181q-28 0 -48 16q-21 14 -36 38q-13 22 -20 50q-9 30 -8 50q-1 23 8 45q10 20 24 35q15 15 36 24q20 9 44 9t43.5 -9t36.5 -24q14 -15 24 -35q7 -21 9 -45q-2 -28 -8 -50q-9 -29 -22 -50q-16 -23 -35 -38q-19 -16 -48 -16zM450 79q1 -1 1.5 -2.5t2 -4t2.5 -3.5
q4 -12 4 -13q1 -5 4 -13q1 -6 0 -11v-53q-1 -12 -4 -17q-3 -9 -9 -13q-8 -7 -14 -9q-6 -4 -17 -4h-330q-10 0 -17 4q-6 3 -13 9q-7 4 -8 13q-3 5 -4 17v53q-1 3 2 11q0 2 0.5 6.5t1.5 6.5q1 8 4 13q1 4 6 10q12 14 18 20q9 10 20 17q7 5 23 13q13 5 28 9l35 -127q2 -6 3 -8
q1 -5 5 -7q4 -4 6 -5q3 -2 9 -2q1 0 8 2q3 1 7 5q0 1 1.5 3t2.5 4q2 4 1 8l1 101q-2 6 2 11q0 1 4 8q3 3 9 6q6 2 10 2q5 0 11 -2q2 -1 4.5 -3t3.5 -3q6 -5 6 -8q1 -1 1 -3t0.5 -4t0.5 -4v-101q2 -6 3 -8q1 -5 5 -7q4 -4 6 -5q3 -2 9 -2q1 0 8 2q3 1 7 5q0 1 1 2t1.5 2.5
t1.5 2.5q2 4 1 8l37 127l27 -9q15 -7 24 -13q0 -1 20 -17q9 -10 17 -20z" />
    <glyph glyph-name="uniF147" unicode="&#xf147;" 
d="M0 448zM504 319q8 -5 8 -15v-299q0 -5 -2.5 -9t-6 -6.5t-8.5 -2.5q-4 0 -8 3l-111 69l-111 -69q-9 -6 -18 0l-111 69l-111 -69q-8 -6 -16.5 -1t-8.5 16v299q0 10 8 15l120 75q8 6 17 0l111 -69l111 69q9 6 17 0zM120 90v258l-87 -54v-258zM239 36v258l-86 54v-258z
M359 90v258l-86 -54v-258zM478 36v258l-86 54v-258z" />
    <glyph glyph-name="uniF148" unicode="&#xf148;" 
d="M0 448zM213 384h22v-21h-22v21zM427 363h-22v21h22v-21zM43 363h-22v-43h-21v107h21v-43h22v-21zM341 384h22v-21h-22v21zM277 384h22v-21h-22v21zM512 256v-277h-512v277h512zM43 85h426v128h-426v-128zM43 21h42v43h-42v-43zM107 21h42v43h-42v-43zM171 21h42v43h-42
v-43zM235 21h42v43h-42v-43zM299 21h42v43h-42v-43zM363 21h42v43h-42v-43zM427 21h42v43h-42v-43zM491 427h21v-107h-21v43h-22v21h22v43zM85 384h22v-21h-22v21zM149 384h22v-21h-22v21z" />
    <glyph glyph-name="uniF149" unicode="&#xf149;" 
d="M0 448zM389 218q7 0 10.5 -4t4 -9t0.5 -13q0 -13 -2.5 -19.5t-12.5 -6.5h-266q-10 0 -12.5 6.5t-2.5 19.5t2.5 19.5t12.5 6.5h266z" />
    <glyph glyph-name="uniF14A" unicode="&#xf14a;" 
d="M0 448zM192 160h-96v-64l-96 96l96 96v-64h96v-64zM320 224h96v64l96 -96l-96 -96v64h-96v64z" />
    <glyph glyph-name="uniF14B" unicode="&#xf14b;" 
d="M40 264v1q7 7 16 13q10 7 19 9q14 2 21 2q11 0 20 -4q8 -2 12 -5q1 -1 10 -7l9 -9q6 -8 8 -10q5 4 14 11q8 5 16 8q5 2 17 6q9 2 19 0q12 2 23 -3q14 -6 21 -10q10 -6 17 -15q5 -7 13 -19q8 6 13 9q8 6 13 8q4 2 14 6q7 3 14 3q13 5 29 3q20 -2 28 -4q11 -3 26 -12
q8 -5 22 -17l15 -18q6 -10 11 -20q2 -4 7 -21q2 -15 1 -24q1 -17 1 -51v-52v-53v-52q-29 -2 -58 0h-58q-29 -2 -58 0q-39 0 -59 -1v27q0 18 1 27v26q-1 9 -1 27q-15 -2 -30 0h-31q-16 -2 -31 0q-21 0 -32 -1v14v13v13v14q-13 -2 -27 0h-27q-13 -2 -27 0q-19 0 -28 -1v129
q1 4 3 11.5t3 10.5q0 1 5 10q2 6 6 8v1v-1zM85 400q12 3 22 -1q11 -5 19 -10q10 -7 13 -16q5 -12 5 -21q0 -11 -5 -23q-3 -7 -13 -17q-9 -8 -20 -11q-9 -2 -22 -1q-11 2 -19 8q-10 7 -14 16q-6 10 -8 19q-1 12 1 21q2 5 6 13q4 6 10 11q2 2 12 8q6 4 13 4v1v-1zM202 415v-1
q16 5 28 1q15 -5 26 -12q10 -7 18 -21q6 -14 5 -28q1 -12 -3 -21q-5 -12 -11 -18q-9 -10 -16 -14q-11 -5 -20 -8q-9 -1 -19 0q-9 0 -19 5q-6 3 -16 11q-8 7 -12 16q0 1 -1 2.5t-1.5 3t-1.5 2.5q-2 6 -2 10q-1 3 -1 10q-1 5 0 9q2 13 5 18q9 14 10 16q6 7 14 12q5 3 17 7v-1
v1zM352 446v-1q10 3 22 3q3 0 7 -0.5t8 -1.5t7 -1q9 -3 19 -9q12 -8 17 -12q9 -9 16 -21q6 -13 8 -25q2 -17 1 -25q-2 -13 -7 -26q-9 -14 -10 -16q-7 -9 -14 -14q-9 -6 -17 -11q-9 -4 -18 -6q-10 -2 -13 -2h-13q-4 0 -12 2q-5 1 -13 3q-9 5 -17 11t-16 15q-5 5 -11 17t-7 21
v8q-1 3 -1 9q0 5 1 8v8q3 12 9 23q4 7 14 19q6 8 19 15q17 7 21 9v-1v1z" />
    <glyph glyph-name="uniF14C" unicode="&#xf14c;" 
d="M0 448zM0 27v37q0 7 5.5 12.5t12.5 5.5h403q7 0 12.5 -5.5t5.5 -12.5v-37q0 -7 -5.5 -12.5t-12.5 -5.5h-403q-7 0 -12.5 5.5t-5.5 12.5zM0 174v36q0 8 5.5 13.5t12.5 5.5h403q7 0 12.5 -5.5t5.5 -13.5v-36q0 -8 -5.5 -13.5t-12.5 -5.5h-403q-7 0 -12.5 5.5t-5.5 13.5z
M0 320v37q0 7 5.5 12.5t12.5 5.5h403q7 0 12.5 -5.5t5.5 -12.5v-37q0 -7 -5.5 -12.5t-12.5 -5.5h-403q-7 0 -12.5 5.5t-5.5 12.5z" />
    <glyph glyph-name="uniF14D" unicode="&#xf14d;" 
d="M0 448zM410 422q21 0 36 -15t15 -36v-358q0 -21 -15 -36t-36 -15h-308q-21 0 -36 15t-15 36v358q0 21 15 36t36 15h308zM410 13v358h-308v-358h308zM282 141v-26h-128v26h128zM358 243v-25h-102v25h102zM256 269v51h102v-51h-102zM230 320v-102h-76v102h76zM205 192v-26
h-51v26h51zM230 166v26h128v-26h-128zM358 90v-26h-204v26h204zM307 115v26h51v-26h-51z" />
    <glyph glyph-name="uniF14E" unicode="&#xf14e;" 
d="M0 448zM490 426h-468v-468h468v468zM512 448v-512h-512v512h512zM5 331h500v-100h-500v100z" />
    <glyph glyph-name="uniF14F" unicode="&#xf14f;" 
d="M211 355l-28 -126l62 1q11 -1 25 5q8 3 22 13q10 7 18 20q6 9 10 23q4 12 2 25q-2 10 -8 20q-9 10 -16 14q-8 3 -22 5l-65 -1v1zM440 383q18 -9 33 -21q14 -11 25 -30q9 -18 13 -42q3 -22 -3 -54q-7 -30 -25 -61q-17 -29 -41 -47q-26 -20 -55 -30q-34 -12 -65 -10l-94 -1
l-32 -150l-132 -1l12 56l-76 -1l100 457l224 -1q24 1 50 -9q24 -10 44 -28q18 -20 26 -48q7 -30 0 -70q-7 -33 -25 -63q-15 -25 -41 -47q-27 -20 -55 -28q-28 -10 -65 -11l-94 1l-32 -153l-23 1l-5 -24l66 1l32 150l120 1q12 -2 28 2q15 3 26 7q13 3 24 10q19 10 22 13
q1 2 3 4l1.5 1t2.5 1l4 4q2 2 3 4q9 7 18 19q4 7 15 23q7 14 11 26q2 7 7 28q2 10 4 28q0 9 -2 25q-2 11 -6 22q-5 11 -10 19q-3 2 -7 8q-5 5 -8 7q-2 1 -4.5 3t-3.5 3q-5 3 -10 5v1z" />
    <glyph glyph-name="uniF150" unicode="&#xf150;" 
d="M0 448zM106 159l102 55l69 -68l-57 -102l-155 -54l69 69q9 -4 23 -3t21 8q10 10 10 24.5t-10 24.5t-24 10t-24 -10q-7 -7 -8.5 -20.5t2.5 -22.5l-70 -70zM368 394l90 -90q-95 -96 -111 -111q-7 -7 -24.5 -13t-31.5 -8l-14 -2l-43 43q8 56 23 70z" />
    <glyph glyph-name="uniF151" unicode="&#xf151;" 
d="M0 448zM457 286q13 -12 13 -30t-13 -30q-6 -6 -15 -10q-43 -21 -58 -51q-21 -42 -21 -101q0 -9 -4 -16q-6 -17 -23 -23q-8 -4 -16 -4t-16 3.5t-14 9.5l-69 69l-114 -82l81 115l-69 69q-6 5 -9 13q-7 17 0 33t23 23q8 3 16 3q59 0 101 21l5 2q27 16 48 59q2 7 9 13
q12 12 30 12t30 -12zM345 184q22 43 80 71l-83 87q-29 -60 -73 -82l-5 -2q-48 -23 -115 -23l171 -171q0 69 25 120z" />
    <glyph glyph-name="uniF152" unicode="&#xf152;" 
d="M221 109q-3 -17 -11 -51q-6 -26 -15 -48t-21 -42q-13 -19 -32 -32q-5 43 -2 76q3 39 10 68q10 44 16 65q7 26 16 62q-11 20 -11 44q0 25 9 46t27 33q17 11 40 2q28 -12 24 -42q-7 -34 -16 -63q-11 -35 -12 -62q-2 -29 34 -36q38 -8 63 20q25 27 36 67q11 43 7 83
q-5 41 -28 65q-33 34 -77.5 37t-82.5 -17q-39 -21 -63 -59t-16 -88q1 -12 8 -20q4 -6 10 -18q3 -6 5 -20q0 -11 -10 -27q-20 4 -35 16q-16 11 -23 25q-8 16 -11 35t-3 42q1 35 17 68q16 32 40 53q25 24 55 38q31 14 62 17q43 5 78 -2q37 -7 68 -26q30 -18 51 -46
q20 -30 25 -66q5 -42 -2 -85q-9 -43 -30 -76q-23 -33 -55 -52q-35 -20 -76 -16q-15 2 -21 4t-16 8t-15 10q-14 8 -17 10z" />
    <glyph glyph-name="uniF153" unicode="&#xf153;" 
d="M0 448zM0 183v55q0 11 8 19t19 8h119v119q0 11 8 19t20 8h55q11 0 19 -8t8 -19v-119h119q11 0 19 -8t8 -19v-55q0 -12 -8 -20t-19 -8h-119v-118q0 -12 -8 -20t-19 -8h-55q-12 0 -20 8t-8 20v118h-119q-11 0 -19 8t-8 20z" />
    <glyph glyph-name="uniF154" unicode="&#xf154;" 
d="M0 448zM389 218q7 0 10.5 -4t4 -9t0.5 -13q0 -13 -2.5 -19.5t-12.5 -6.5h-107v-107q0 -10 -6.5 -12.5t-19.5 -2.5h-10t-8 1.5t-6 5t-2 8.5v107h-107q-10 0 -12.5 6.5t-2.5 19.5t2.5 19.5t12.5 6.5h107v107q0 10 6.5 12.5t19.5 2.5t19.5 -2.5t6.5 -12.5v-107h107z" />
    <glyph glyph-name="uniF155" unicode="&#xf155;" 
d="M0 448zM267 166l85 -198l-64 -32l-74 203l-118 -107v416l320 -256z" />
    <glyph glyph-name="uniF156" unicode="&#xf156;" 
d="M0 448zM0 -64v512h512v-512h-512zM480 416h-448v-448h448v448zM448 96h-384v288h384v-288z" />
    <glyph glyph-name="uniF157" unicode="&#xf157;" 
d="M399 240h2q23 0 42.5 -9t36.5 -24q15 -15 24 -35q8 -22 8 -44q0 -24 -9 -43q-9 -21 -24 -36q-17 -15 -36.5 -24t-42.5 -9q-25 0 -44 9q-21 9 -35 24q-17 15 -24 36q-9 19 -9 43l-1 16q0 46 18 87q16 41 48 72q29 30 71 48q42 17 87 17v-64q-16 0 -31 -3q-17 -3 -30 -9
q-14 -5 -28 -15q-12 -8 -24 -20l-4 -4q-1 -2 -4 -5q-2 -1 -4 -4q-1 -2 -4 -5h4q3 0 5 1h4h1.5h2.5zM112 240h2q24 0 43.5 -9t35.5 -24q15 -15 24 -35q8 -22 8 -44q0 -24 -9 -43q-9 -21 -24 -36q-16 -15 -35.5 -24t-43.5 -9t-44 9t-35 24q-16 15 -24 36q-9 19 -9 43l-1 16
q0 46 18 87q17 41 48 72q30 30 71 48q42 17 87 17v-64q-16 0 -31 -3q-16 -3 -30 -9q-13 -5 -28 -15q-12 -8 -24 -20l-1 -1l-3 -3q-1 -2 -4 -5l-2 -2l-2 -2q-1 -2 -4 -5h4q3 0 5 1h4h2.5h1.5z" />
    <glyph glyph-name="uniF158" unicode="&#xf158;" 
d="M460 194q1 0 8 5q4 3 7 7l2.5 5t1.5 4q1 3 1 9q0 5 -2 13q-6 9 -7 10t-10 7q-8 2 -13 2q-6 0 -9 -1q-1 0 -2.5 -1l-3 -2t-2.5 -1q-3 -2 -7 -6t-5 -7q2 -1 4 -3l4 -4t4 -3q4 -3 11 -10q2 -2 5.5 -6t4.5 -6q2 -2 4 -6t4 -6zM256 6q40 0 73 10q33 9 59 26q25 16 40 39
q14 23 14 47q0 25 -14 48q-15 23 -40 39q-22 14 -59 26q-35 9 -73 9q-39 0 -72 -9q-36 -11 -59 -26q-27 -18 -40 -39q-15 -22 -15 -48q0 -24 15 -47q13 -21 40 -39q28 -18 59 -26q31 -10 72 -10zM32 224q0 -3 2 -9t4 -9q1 -4 6 -7q7 -5 8 -5q1 2 4 6t5 6l9 12q7 7 11 10
q2 2 6 5.5t6 4.5q-1 3 -5 7l-6 6q-2 1 -4.5 2.5t-3.5 1.5q-3 1 -10 1q-6 0 -12 -2q-6 -3 -10 -7q-6 -6 -7 -10q-3 -6 -3 -13zM432 386q-5 0 -7 -1t-5 -4q-2 -2 -4 -6t-2 -7t2 -7t4 -5q1 -2 5 -4t7 -2t7 2t6 4q3 3 4 5t1 7t-1 7q0 1 -1.5 3t-2.5 3t-3 2l-3 2q-2 1 -7 1z
M512 224q0 -10 -3 -19q-2 -6 -8 -16q-5 -8 -12 -14q-5 -4 -15 -10q1 -2 2 -4.5t1 -3.5t0.5 -3l1 -4t0.5 -3q0 -6 1 -9v-10q0 -33 -17 -62q-18 -28 -48 -51q-30 -22 -72 -34q-39 -13 -87 -13t-87 13q-42 13 -71 34q-32 23 -48 51q-18 28 -18 62q0 7 1 10q0 6 1 9q0 4 2 10
q0 1 0.5 2.5l1 3t0.5 2.5q-10 6 -15 10q-7 6 -12 14q-6 10 -8 16q-3 9 -3 19q0 12 5 25q4 11 14 21q9 9 20 13q13 5 25 5q6 0 18 -2q10 -4 15 -7q7 -4 13 -10q6 -8 10 -14q8 5 26 13l27 9q10 3 30 7q20 2 31 3l52 117q2 4 4 6q3 3 5 4t7 1q4 0 6 -1l82 -23q4 6 8 10q6 6 9 8
q6 4 12 5q8 2 13 2q11 0 19 -4q10 -6 15 -10q4 -5 10 -15q4 -8 4 -19t-4 -18q-5 -10 -10 -15t-15 -11q-8 -4 -19 -4q-8 0 -15 3q-7 1 -13 6q-6 4 -10 10q-6 8 -7 13l-73 21l-39 -86l33 -3q20 -4 30 -7q4 -1 13.5 -4t14.5 -5q18 -8 26 -13q4 6 10 14q5 5 13 10q6 4 16 7
q10 2 17 2q12 0 25 -5q10 -4 21 -13q9 -11 13 -21q5 -13 5 -25zM322 92q4 2 7 3q2 1 7 1q1 -1 3.5 -1.5t3.5 -0.5q4 -2 5 -6q2 -2 4 -6q1 -3 1 -7q-1 -3 -3 -7q-1 -4 -5 -6q-10 -8 -19 -12q-4 -2 -22 -10q-12 -4 -24 -6q-16 -2 -24 -2t-24 2q-13 2 -23 6q-13 5 -22 10
q-12 5 -20 12q-4 2 -5 6q-2 4 -2 7q-1 3 0 7q2 4 4 6q1 4 6 6q1 1 3.5 1.5t3.5 0.5q4 0 7 -1l6 -3l13 -8q6 -4 16 -7q9 -4 18 -5q12 -2 19 -2q6 0 20 2q6 1 18 5q13 5 16 7q10 6 12 8zM320 160q0 7 3 13q1 5 7 10q4 4 10 7q6 2 12 2q5 0 13 -2q9 -6 10 -7t7 -10q2 -8 2 -13
q0 -6 -2 -12q-3 -6 -7 -10q-6 -6 -10 -7q-6 -3 -13 -3q-8 0 -12 3q-4 1 -10 7t-7 10q-3 4 -3 12zM128 160q0 7 3 13q1 4 7 10q4 4 10 7q6 2 12 2q5 0 13 -2q9 -6 10 -7t7 -10q2 -8 2 -13q0 -6 -2 -12q-3 -6 -7 -10q-6 -6 -10 -7q-6 -3 -13 -3q-8 0 -12 3q-4 1 -10 7t-7 10
q-3 4 -3 12z" />
    <glyph glyph-name="uniF159" unicode="&#xf159;" 
d="M0 448zM486 18q-23 41 -51.5 66.5t-65.5 37.5t-71.5 15.5t-86.5 3.5v-111l-185 171l185 165v-99q45 0 85 -13.5t67.5 -35.5t50 -48.5t35.5 -53.5t22 -49t12 -35z" />
    <glyph glyph-name="uniF15A" unicode="&#xf15a;" 
d="M0 448zM496 0h-352q-6 0 -11 5t-5 11v16h352v224h16q6 0 11 -5t5 -11v-224q0 -6 -5 -11t-11 -5zM432 64h-352q-6 0 -11 5t-5 11v16h352v224h16q6 0 11 -5t5 -11v-224q0 -6 -5 -11t-11 -5zM368 128h-352q-6 0 -11 5t-5 11v224q0 6 5 11t11 5h352q6 0 11 -5t5 -11v-224
q0 -6 -5 -11t-11 -5zM352 352h-320v-192h320v192z" />
    <glyph glyph-name="uniF15B" unicode="&#xf15b;" 
d="M175 58.5q0 4.5 3 8.5l126 126l-126 125q-3 4 -3 8t3 7l16 17q4 2 8 2q2 0 6 -2l150 -151q3 -1 3 -6t-3 -8l-150 -150q-3 -3 -6 -3q-5 0 -8 3l-16 16q-3 3 -3 7.5zM151 58.5q0 4.5 3 8.5l126 126l-126 125q-3 4 -3 8t3 7l16 17q4 2 8 2q2 0 6 -2l150 -151q3 -1 3 -6
t-3 -8l-150 -150q-3 -3 -6 -3q-5 0 -8 3l-16 16q-3 3 -3 7.5z" />
    <glyph glyph-name="uniF15C" unicode="&#xf15c;" 
d="M0 448q107 0 199 -40q91 -40 163 -110q70 -72 110 -163q40 -92 40 -199h-98q0 86 -33 161q-33 74 -89 132q-56 56 -131 89q-76 32 -161 32v98zM0 274q69 0 132 -26q61 -27 107 -73t73 -107q26 -63 26 -132h-99q0 27 -4 47t-14 45q-10 24 -22 42q-14 20 -30 36
q-17 17 -36 30q-17 12 -41 22q-25 10 -45 14t-47 4v98zM68 73q12 0 27 -5q11 -5 22 -15q10 -12 14 -22q5 -13 5 -27q0 -13 -5 -26q-4 -11 -14 -21q-11 -11 -22 -15q-15 -5 -27 -5q-13 0 -26 5q-13 4 -22 15q-10 10 -14 21q-6 12 -6 26q0 15 6 27q4 10 14 22q9 9 22 15
q13 5 26 5z" />
    <glyph glyph-name="uniF15D" unicode="&#xf15d;" 
d="M0 448zM0 210q0 41 16 78.5t43 64.5t64 42.5t78 15.5t78.5 -15.5t64.5 -42.5t42.5 -64.5t15.5 -78.5q0 -63 -35 -114l98 -98q10 -10 10 -25t-10.5 -26t-25.5 -11q-16 0 -26 11l-98 98q-51 -36 -114 -36q-41 0 -78 16t-64 43t-43 64t-16 78zM73 210q0 -53 37.5 -90.5
t90.5 -37.5t90.5 37.5t37.5 90.5t-37.5 90.5t-90.5 37.5t-90.5 -37.5t-37.5 -90.5z" />
    <glyph glyph-name="uniF15E" unicode="&#xf15e;" 
d="M0 448zM448 -64h-384q-26 0 -45 19t-19 45v384q0 26 19 45t45 19h128q13 0 22.5 -9.5t9.5 -23t-9.5 -22.5t-22.5 -9h-96q-13 0 -22.5 -9.5t-9.5 -22.5v-320q0 -14 9 -23t23 -9h320q13 0 22.5 9t9.5 23v96q0 13 9 22.5t22.5 9.5t23 -9.5t9.5 -22.5v-128q0 -26 -19 -45
t-45 -19zM479.5 192q-13.5 0 -22.5 9t-9 23v119l-206 -206q-9 -9 -21 -9t-20.5 8.5t-8.5 20.5t9 21l206 206h-119q-14 0 -23 9t-9 22.5t9 23t23 9.5h192q13 0 22.5 -9.5t9.5 -22.5v-192q0 -14 -9.5 -23t-23 -9z" />
    <glyph glyph-name="uniF15F" unicode="&#xf15f;" 
d="M0 448zM183 9q0 -15 -11 -25.5t-26 -10.5t-25.5 10.5t-10.5 25.5t10.5 26t25.5 11t26 -11t11 -26zM439 9q0 -15 -11 -25.5t-26 -10.5t-25.5 10.5t-10.5 25.5t10.5 26t25.5 11t26 -11t11 -26zM475 320v-146q0 -7 -4.5 -12.5t-11.5 -6.5l-298 -34q0 -2 1 -6.5t2 -8t1 -5.5
q0 -5 -7 -19h263q7 0 12.5 -5.5t5.5 -12.5t-5.5 -12.5t-12.5 -5.5h-293q-7 0 -12.5 5.5t-5.5 12.5q0 4 3 11.5t8.5 17t5.5 10.5l-50 235h-59q-7 0 -12.5 5.5t-5.5 13t5.5 13t12.5 5.5h73q5 0 8.5 -2t5.5 -4.5t4 -7t2.5 -7.5t1.5 -8.5t1 -7.5h343q8 0 13 -5.5t5 -12.5z" />
    <glyph glyph-name="uniF160" unicode="&#xf160;" 
d="M0 448zM48 384h400v-400h-400v400zM304 0v368h-240v-368h240zM432 0v368h-112v-368h112z" />
    <glyph glyph-name="uniF161" unicode="&#xf161;" 
d="M276 18q27 2 54 14q25 13 42 31.5t23 40.5q6 23 -3 46q-10 24 -28 38q-17 14 -40 23q-27 9 -48 14q-12 2 -52 11q-23 6 -31 19q-7 12 -2 25q6 12 22 21q15 9 37 9q20 -2 35 -10q17 -9 28 -19q8 -8 22 -18q11 -9 18 -8q12 2 18 8q7 7 10 17q3 9 -2 23q-4 12 -18 24
q-18 14 -27 19q-16 9 -31 13q-21 6 -37 7q-12 1 -45 -1q-17 -2 -35 -9t-32 -19q-13 -12 -24 -30q-9 -16 -11 -42q-4 -23 8.5 -41.5t30.5 -30.5q18 -13 42 -21q27 -8 46 -11q11 -1 33 -7q13 -3 28 -13q12 -8 13.5 -19t-9.5 -26q-12 -12 -28 -17q-13 -4 -31 -2q-12 1 -28 7
l-20 8l-12 12l-14 14q-7 7 -16 13q-10 5 -19 4q-12 -1 -19 -8q-7 -8 -9 -17q-3 -10 2 -23q4 -11 17 -26q21 -16 26 -19q12 -9 29 -15q18 -6 38 -8q29 -2 50 -1h-1zM487 159q4 -5 10 -17q2 -3 4.5 -9.5t3.5 -10.5q3 -8 5 -20q1 -3 1.5 -10.5t0.5 -11.5q-2 -31 -11 -54
q-10 -25 -29.5 -44.5t-45.5 -30.5q-27 -11 -55 -11q-5 0 -19 2t-20 4q-9 2 -18 6q-6 3 -16 9q-2 0 -5.5 -0.5t-5.5 -1.5q-3 -1 -11 -1q-4 -1 -11 -1h-11q-48 0 -91 19q-42 18 -75 50q-30 31 -50 74q-19 42 -18 91q-1 4 0 9v10q0 6 1 9t1 9q-3 5 -9 17t-7 19q-4 12 -5 19
q-2 14 -1 21q-1 28 11 55q10 24 30 44q18 19 44 30q27 11 54 11q15 0 22 -1q6 -1 20 -5q12 -4 19 -7q5 -3 17 -9q6 0 9 1q6 0 9 1q6 0 10 1h9q49 0 92 -18q42 -20 75 -51q32 -32 50 -74q17 -42 19 -91q-1 -4 0 -8q0 -5 -1 -8t-1 -8t-1 -8z" />
    <glyph glyph-name="uniF162" unicode="&#xf162;" 
d="M0 448zM17 104q0 -2 -4.5 -2t-5.5 2l-7 35l7 37q1 2 5.5 2t4.5 -2l9 -37zM70 84q-1 -4 -6.5 -4t-5.5 4l-7 55l7 86q0 4 5.5 4t6.5 -4l7 -86zM122 85q0 -5 -7 -5t-7 5l-6 54l6 114q0 5 7 5t7 -5l6 -114zM174 85q0 -5 -8 -5t-8 5l-4 54l4 115q0 6 8 6t8 -6l5 -115zM227 86
q-1 -7 -10 -6.5t-9 6.5l-3 53l3 132q0 6 9 6t10 -6l3 -132zM263 79q-7 1 -7 8v203q0 5 6 7q21 8 43 8q45 0 78.5 -30t37.5 -73q12 5 25 5q27 0 46.5 -18.5t19.5 -45t-19.5 -45.5t-46.5 -19h-46h-91.5h-45.5z" />
    <glyph glyph-name="uniF163" unicode="&#xf163;" 
d="M435 325q0 -10 -7 -18q-8 -7 -18 -7q-11 0 -19 7q-7 8 -7 18t7 19q8 7 19 7q10 0 18 -7q7 -9 7 -19zM502 181q0 -12 -9 -21t-22 -9t-22 9t-9 21q0 14 9 23t22 9t22 -9t9 -23zM327 386.5q0 -25.5 -18 -43.5t-42 -18q-26 0 -44 18t-18 43.5t18 43.5t44 18q24 0 42 -18
t18 -43.5zM179 325q0 -23 -16.5 -39.5t-39.5 -16.5t-40 16.5t-17 39.5t17 40t40 17t39.5 -17t16.5 -40zM446 38q0 -15 -11 -25q-10 -11 -25 -11q-16 0 -26 11q-10 10 -10 25q0 16 10 26t26 10q15 0 25 -10q11 -10 11 -26zM112 181q0 -21 -14.5 -35.5t-35.5 -14.5
q-23 0 -37.5 14.5t-14.5 35.5q0 23 14.5 37.5t37.5 14.5q21 0 35.5 -14.5t14.5 -37.5zM307 -23q0 -16 -12.5 -28.5t-27.5 -12.5q-17 0 -29.5 12.5t-12.5 28.5t12.5 28.5t29.5 12.5q15 0 27.5 -12.5t12.5 -28.5zM169 38q0 -19 -13 -33q-15 -13 -33 -13q-20 0 -33.5 13.5
t-13.5 32.5q0 20 13.5 33.5t33.5 13.5q18 0 33 -13q13 -14 13 -34z" />
    <glyph glyph-name="uniF164" unicode="&#xf164;" 
d="M0 448zM512 288l-256 -128l-256 128l256 128zM256 374l-171 -86l171 -86l171 86zM461 218l51 -26l-256 -128l-256 128l51 26l205 -103zM461 122l51 -26l-256 -128l-256 128l51 26l205 -103z" />
    <glyph glyph-name="uniF165" unicode="&#xf165;" 
d="M0 448zM325 161l87 85l-120 18l-54 109l-54 -109l-121 -18l88 -85l-21 -120l108 57l107 -57zM475 263q0 -6 -7 -14l-104 -101l25 -143v-5q0 -15 -12 -15q-5 0 -11 4l-128 67l-129 -67q-6 -4 -11 -4q-6 0 -9 4.5t-3 10.5q0 1 1 5l24 143l-104 101q-7 8 -7 14q0 11 16 13
l143 21l65 130q5 12 13.5 12t14.5 -12l64 -130l143 -21q16 -2 16 -13z" />
    <glyph glyph-name="uniF166" unicode="&#xf166;" 
d="M512 247q0 -7 -8 -15l-112 -107l27 -156v-6q0 -6 -3 -11q-2 -2 -10 -4q-3 1 -11 3l-138 74l-139 -74q-9 -2 -12 -3q-8 2 -10 4q-3 5 -3 11q0 4 1 6l26 156l-112 107q-8 9 -8 15q0 13 17 14l154 24l70 139q6 14 16 12q8 2 15 -12l69 -139l154 -24q17 -1 17 -14z" />
    <glyph glyph-name="uniF167" unicode="&#xf167;" 
d="M0 448zM146 55v55q0 4 -2.5 6.5t-6.5 2.5h-91q-4 0 -6.5 -2.5t-2.5 -6.5v-55q0 -4 2.5 -6.5t6.5 -2.5h91q4 0 6.5 2.5t2.5 6.5zM146 165v54q0 4 -2.5 7t-6.5 3h-91q-4 0 -6.5 -3t-2.5 -7v-54q0 -4 2.5 -7t6.5 -3h91q4 0 6.5 3t2.5 7zM293 55v55q0 4 -3 6.5t-7 2.5h-91
q-4 0 -6.5 -2.5t-2.5 -6.5v-55q0 -4 2.5 -6.5t6.5 -2.5h91q4 0 7 2.5t3 6.5zM146 274v55q0 4 -2.5 6.5t-6.5 2.5h-91q-4 0 -6.5 -2.5t-2.5 -6.5v-55q0 -4 2.5 -6.5t6.5 -2.5h91q4 0 6.5 2.5t2.5 6.5zM293 165v54q0 4 -3 7t-7 3h-91q-4 0 -6.5 -3t-2.5 -7v-54q0 -4 2.5 -7
t6.5 -3h91q4 0 7 3t3 7zM439 55v55q0 4 -2.5 6.5t-6.5 2.5h-92q-4 0 -6.5 -2.5t-2.5 -6.5v-55q0 -4 2.5 -6.5t6.5 -2.5h92q4 0 6.5 2.5t2.5 6.5zM293 274v55q0 4 -3 6.5t-7 2.5h-91q-4 0 -6.5 -2.5t-2.5 -6.5v-55q0 -4 2.5 -6.5t6.5 -2.5h91q4 0 7 2.5t3 6.5zM439 165v54
q0 4 -2.5 7t-6.5 3h-92q-4 0 -6.5 -3t-2.5 -7v-54q0 -4 2.5 -7t6.5 -3h92q4 0 6.5 3t2.5 7zM439 274v55q0 4 -2.5 6.5t-6.5 2.5h-92q-4 0 -6.5 -2.5t-2.5 -6.5v-55q0 -4 2.5 -6.5t6.5 -2.5h92q4 0 6.5 2.5t2.5 6.5zM475 366v-311q0 -19 -13 -32.5t-32 -13.5h-384
q-19 0 -32.5 13.5t-13.5 32.5v311q0 19 13.5 32t32.5 13h384q19 0 32 -13t13 -32z" />
    <glyph glyph-name="uniF168" unicode="&#xf168;" 
d="M0 448zM469 260v0l-4 -9v0l-171 -315l-251 136l170 315l196 61zM378.5 270.5q11.5 21.5 4.5 44.5t-28.5 34.5t-45 4.5t-35 -28t-4.5 -44.5t28.5 -35t45 -4.5t35 28.5z" />
    <glyph glyph-name="uniF169" unicode="&#xf169;" 
d="M0 448zM293 46h182v36h-182v-36zM183 192h292v37h-292v-37zM366 338h109v37h-109v-37zM512 101v-74q0 -7 -5.5 -12.5t-12.5 -5.5h-476q-7 0 -12.5 5.5t-5.5 12.5v74q0 7 5.5 12.5t12.5 5.5h476q7 0 12.5 -5.5t5.5 -12.5zM512 247v-73q0 -8 -5.5 -13.5t-12.5 -5.5h-476
q-7 0 -12.5 5.5t-5.5 13.5v73q0 7 5.5 12.5t12.5 5.5h476q7 0 12.5 -5.5t5.5 -12.5zM512 393v-73q0 -7 -5.5 -12.5t-12.5 -5.5h-476q-7 0 -12.5 5.5t-5.5 12.5v73q0 8 5.5 13t12.5 5h476q7 0 12.5 -5t5.5 -13z" />
    <glyph glyph-name="uniF16A" unicode="&#xf16a;" 
d="M0 448zM458 296v-206l-228 -152l-228 152v206l228 152zM31 220l199 133l169 -113l-169 -112l-71 47l-45 -30l116 -77l199 133v79l-199 132l-199 -132v-60zM185 193l45 -30l45 30l-45 30zM230 -27l199 133v59l-199 -132l-169 112l169 113l71 -48l45 30l-116 78l-199 -133
v-79z" />
    <glyph glyph-name="uniF16B" unicode="&#xf16b;" 
d="M0 448zM445 321q11 -27 5.5 -58t-28.5 -53q-24 -25 -58.5 -29t-63.5 12l-28 -30l20 -21l12 12q11 12 22 0l98 -98q4 -4 4 -10.5t-4 -11.5l-45 -44q-11 -12 -22 0l-97 98q-5 4 -5 10.5t5 11.5l11 11l-19 19l-135 -147q-9 -9 -22 -9t-22 9l-11 11q-10 10 -10 23t10 22
l153 128l-102 102h-32l-37 60l30 30l61 -37v-32l103 -103l30 25q-22 30 -19.5 67.5t29.5 64.5q22 22 52.5 28t58.5 -6l-66 -65l55 -55zM98.5 33q-11.5 11 -22.5 0q-3 -3 -4 -7t0 -8t4 -7q11 -11 22.5 0t0 22z" />
    <glyph glyph-name="uniF16C" unicode="&#xf16c;" 
d="M0 448zM0 311v18q0 4 2.5 6.5t6.5 2.5h88l20 48q5 11 16 18t22 7h92q11 0 22.5 -7t15.5 -18l20 -48h88q4 0 6.5 -2.5t2.5 -6.5v-18q0 -4 -2.5 -6.5t-6.5 -2.5h-27v-271q0 -24 -13.5 -41t-32.5 -17h-238q-19 0 -32 16.5t-13 40.5v272h-28q-4 0 -6.5 2.5t-2.5 6.5zM73 31
q0 -6 2 -11.5t4 -8t3 -2.5h238q1 0 3 2.5t4 8t2 11.5v271h-256v-271zM110 73v165q0 4 2.5 6.5t6.5 2.5h18q4 0 6.5 -2.5t2.5 -6.5v-165q0 -4 -2.5 -6.5t-6.5 -2.5h-18q-4 0 -6.5 2.5t-2.5 6.5zM137 338h128l-14 34q-2 2 -4 3h-91q-3 -1 -5 -3zM183 73v165q0 4 2.5 6.5
t6.5 2.5h18q4 0 6.5 -2.5t2.5 -6.5v-165q0 -4 -2.5 -6.5t-6.5 -2.5h-18q-4 0 -6.5 2.5t-2.5 6.5zM256 73v165q0 4 2.5 6.5t6.5 2.5h18q4 0 7 -2.5t3 -6.5v-165q0 -4 -3 -6.5t-7 -2.5h-18q-4 0 -6.5 2.5t-2.5 6.5z" />
    <glyph glyph-name="uniF16D" unicode="&#xf16d;" 
d="M288 224v-117v-20v-15q0 -9 1 -12q0 -1 0.5 -4t1 -4l1.5 -3t2 -3q1 -3 5 -7q2 -3 5 -5q2 -2 6 -4q5 -3 10 -5q4 -1 9 -3q2 -1 5 -1.5t5 -0.5q3 -1 10 -1q13 0 18 1q2 0 7.5 1t8.5 2q7 2 15 6q16 10 18 11v-77q-3 -2 -16 -7q-10 -4 -15 -5q-11 -4 -14 -5q-3 0 -7.5 -1.5
t-6.5 -2.5t-6.5 -1.5t-6.5 -0.5q-10 -2 -14 -2q-5 -1 -15 -1q-5 -1 -15 -1q-11 0 -16 1q-9 0 -13 1q-5 1 -13 3q-3 1 -7 2.5t-6 1.5q-5 1 -13 5q-7 1 -12 6q-8 4 -11 7q-6 3 -10 7l-6 6l-3 3q-5 5 -7 8q-4 4 -6 9q-4 6 -5 9t-3 11q-1 2 -1.5 6t-0.5 6q-1 4 -1 14q-1 5 -1 17
v179h-69v73q7 1 16 5q10 4 15 7q7 3 14 7q8 5 12 9l3 3t4 3.5t3 2.5q7 7 10 11q2 2 4.5 6t3.5 5q4 8 7 13q2 4 6 14q1 5 5 15q0 2 1.5 8t2.5 9t1.5 9.5t0.5 9.5h83v-128h128v-96h-128z" />
    <glyph glyph-name="uniF16E" unicode="&#xf16e;" 
d="M512 351q-3 -5 -11 -15l-12 -15q-9 -9 -14 -13l-15 -12v-3v-3v-3v-4q0 -54 -19 -105q-18 -51 -58 -97q-36 -42 -94 -70q-55 -27 -128 -27q-22 0 -43 3q-22 3 -42 9t-40 15q-17 8 -36 20h6q2 -1 7 -1h6h6q19 0 37 3t34 9q14 4 31 14q13 6 29 19q-18 0 -33 6q-15 4 -29 15
q-12 8 -22 23q-11 14 -15 29q2 -1 6 -1q1 -1 5 -1h5h4h8q4 0 7 1q4 0 7 1q4 0 6 1q-20 5 -33 14q-16 9 -27 23q-12 14 -18 30.5t-6 35.5v1v1q5 -4 11 -5q3 -2 11 -4t13 -3q4 -1 12 -1q-10 7 -19 16t-15 21q-6 10 -9 24q-4 11 -4 26q0 9 1 14q0 2 1 6.5t2 7.5q0 1 5 13
q2 6 6 12q19 -24 43 -43q28 -22 52 -34q31 -16 58 -22q32 -10 63 -11q-1 2 -1 6q-1 2 -1 6v6q-1 2 -1 6q0 22 9 41q6 17 22 34q14 14 34 22q21 8 40 8q9 0 23 -2q11 -3 20 -7q11 -5 19 -10q5 -4 15 -14q6 1 18 5q8 1 17 5q13 5 16 7q2 2 8 4t8 4q-4 -12 -7 -17
q-3 -6 -11 -16q-6 -7 -13 -13q-7 -7 -15 -12q2 0 5 0.5t6 1.5t5 1l15 3t15 5q3 1 7.5 3t6.5 3z" />
    <glyph glyph-name="uniF16F" unicode="&#xf16f;" 
d="M273 192q0 -1 -1 -1l-27 -27l-1 -1l-1 1l-3 3q-1 0 -1 1t1 1l22 23l-22 22q-1 1 -1 2t1 1l3 3q0 1 1 1t1 -1l27 -27q1 0 1 -1zM512 85q0 -8 -5 -11l-26 -27q-5 -5 -12 -5q-5 0 -11 5l-201 203l-203 -203q-5 -5 -11 -5q-7 0 -12 5l-26 27q-5 3 -5 11q0 7 5 13l239 239
q6 5 13 5q5 0 11 -5l239 -239q5 -6 5 -13z" />
    <glyph glyph-name="uniF170" unicode="&#xf170;" 
d="M0 448zM379 78q105 -38 105 -62v-54h-481v54q0 24 104 62q32 12 50 23t25.5 25.5t7.5 35.5q0 11 -11.5 24.5t-15.5 38.5q-2 6 -5.5 8.5t-7 3.5t-7 8.5t-4.5 22.5q0 5 1 9t2 6t2.5 4t2.5 2l1 1q-5 25 -7 45q-1 11 3 24t14 28t32.5 25t53 10t52.5 -10t32 -25t14 -28t3 -24
l-7 -45q10 -5 10 -22q-1 -12 -3.5 -19t-5.5 -9.5t-6 -4t-5.5 -3.5t-3.5 -7q-4 -20 -11 -30.5t-12 -16.5t-5 -16q0 -31 18 -49t65 -35z" />
    <glyph glyph-name="uniF171" unicode="&#xf171;" 
d="M0 448zM512 -33h-115v76q0 15 -2.5 23.5t-14 18.5t-27.5 19t-50 26q21 15 21 43q0 7 -7 16.5t-10 26.5q-1 4 -7 8.5t-7 21.5q0 5 1.5 9t2.5 5l1 1q-2 17 -4 31q-1 19 13 39.5t49 20.5q24 0 39 -12t19 -24.5t3 -23.5l-4 -31q5 -3 5 -15q-1 -17 -7 -21.5t-7 -8.5
q-2 -13 -6 -20.5t-7 -11.5t-3 -11q0 -15 4.5 -24.5t15 -17.5t30.5 -16q57 -24 67 -41q3 -5 4.5 -31.5t2.5 -51.5v-24zM262 100q45 -19 69.5 -33.5t24.5 -29.5v-70h-356v93q0 11 9 20t15 12t19 8q38 16 52.5 32.5t14.5 45.5q0 9 -4 14.5t-9.5 15t-8.5 27.5q-1 6 -4 8.5
t-6 3.5t-5.5 8t-3.5 20q0 7 1.5 12t3.5 7l2 1q-4 24 -5 42q-1 10 2 22t11 26t26 23t42.5 9t42.5 -9t26 -23t11 -26t2 -22l-5 -42q7 -4 7 -20q0 -11 -2 -17.5t-4.5 -8.5t-5 -3.5t-4.5 -3.5t-3 -7q-3 -22 -12.5 -34.5t-9.5 -22.5q0 -29 14.5 -45.5t52.5 -32.5z" />
    <glyph glyph-name="uniF172" unicode="&#xf172;" 
d="M0 448zM427 448q35 0 60 -25t25 -60v-342q0 -35 -25 -60t-60 -25h-342q-35 0 -60 25t-25 60v342q0 35 25 60t60 25h342zM406 229q10 52 -30 62q-36 9 -70 -20q-23 -20 -28 -50q26 15 38 -0.5t-2 -40.5q-29 -55 -43 -55q-9 0 -24 61q-2 8 -5 26t-6 30.5t-7.5 25.5
t-13 18.5t-20.5 3.5q-17 -4 -40 -21t-37 -33l-14 -16l12 -16q1 1 3 2t7 4.5t8.5 4.5t9 2t6.5 -3q5 -5 26 -74t26 -79q5 -11 14.5 -20t22.5 -13t27 6q13 8 32 25t42 42.5t42 60t24 67.5z" />
    <glyph glyph-name="uniF173" unicode="&#xf173;" 
d="M510 320l1 -3q7 -16 -40 -78q-7 -11 -18 -23q-17 -23 -23 -35q-4 -11 4 -21q4 -6 21 -22h1v-2q40 -37 51 -59l2 -2q2 -2 2 -8q2 -5 -1 -9q0 -4 -6 -7q-4 -4 -16 -4h-67q-9 -2 -15 0q-11 3 -14 7l-6 3q-9 7 -19 17q-6 8 -18 20q-7 9 -16 16q-8 7 -15 4q-1 0 -3 -1t-5 -4
q-2 -4 -5 -7l-5 -14q-1 -7 -1 -21q1 -2 -1 -7q0 -4 -3 -5v-2q-5 -4 -14 -6h-31q-16 -1 -39 5q-20 6 -35 14q-19 11 -27 18q-14 9 -20 15l-5 6q-3 2 -8 9q-6 4 -19 24q-13 16 -28 40q-12 17 -32 56q-22 38 -36 73q-1 5 -1 7q-1 2 1 4v2q5 5 15 5l74 1q1 -1 3 -1.5t4 -0.5
q0 -1 1.5 -1.5t1.5 -1.5h1q6 -6 7 -9q11 -26 12 -27q8 -17 11 -22l5 -8q8 -19 15 -27q7 -13 13 -19q3 -6 11 -10q4 -4 9 -4q4 0 7 1q0 1 0.5 1t1.5 1q0 1 3 5q3 10 3 13q0 8 3 22v33q-1 10 -3 19q-3 11 -3 12l-3 4q-6 10 -23 11q-2 1 2 7q2 1 5 4t5 4q15 7 64 6q23 0 35 -3
q4 -1 10 -4q4 -3 5 -6q3 -4 3 -9q2 -6 1 -12q1 -5 -1 -15q2 -6 0 -18q0 -16 -1 -23q2 -3 0 -11q2 -8 0 -12q1 -3 1 -11q1 -5 3 -11q5 -4 7 -6q1 -1 3 -1q4 -1 8 3q7 5 10 9q7 6 14 18q7 10 18 29q14 23 29 60q2 3 2 4l3 3l2 1v1h1h3q3 1 6 1h77q11 1 17 -1z" />
    <glyph glyph-name="uniF174" unicode="&#xf174;" 
d="M198 147q3 0 9 2q1 0 8 5q3 4 5 8q1 3 1 9q0 5 -1 8q-1 2 -2.5 4t-1.5 3q-1 0 -3 1.5t-3 2.5q-2 0 -4 1l-4 2h-1h-1h-1h-2q-17 1 -40 5q-14 2 -33 8q-18 5 -27 11q-11 5 -22 14q-1 0 -2 1t-1 2q-1 1 -1 4q-1 1 -1 3q-1 1 -1 4q0 2 2 8q1 5 4 7q2 4 6 5q1 1 3.5 1.5
t3.5 0.5q10 1 22 8q11 6 18 15q7 7 12 19q4 9 4 22v4q0 24 9 45q8 20 24 35q15 15 35 24t44 9q23 0 44 -9q20 -9 35 -24t24 -35q9 -21 9 -45v-4q0 -13 4 -22q5 -12 12 -19q8 -10 17 -15q12 -7 22 -8q2 -1 4.5 -1.5t3.5 -0.5q2 -1 6 -5q0 -1 1 -2l3 -5q1 -3 1 -8v-4
q0 -2 -1 -3l-0.5 -1.5t-1 -2.5l-1 -2t-1.5 -1q-14 -10 -22 -14q-9 -6 -27 -11q-22 -6 -34 -8q-24 -4 -39 -5h-2h-1h-1q-1 0 -2.5 -0.5l-3 -1t-2.5 -0.5q-3 -1 -7 -5q-3 -3 -4 -7q-2 -6 -2 -8q0 -3 2 -9q1 -5 4 -7q4 -4 7 -5q1 -1 3.5 -2t4.5 -1h8q2 -1 6 -1q2 -1 7 -1
q1 -1 3 -1t3 -1q1 0 7 -2q2 -1 6 -5l3 -6q1 -3 1 -8v-3q0 -3 -1 -4t-1 -3q-1 0 -1 -1t-1 -2q-10 -12 -19 -18q-10 -8 -23 -15q-12 -6 -25 -9t-28 -3q-17 0 -29 4q-14 3 -26 9q-13 7 -23 15q-11 8 -19 19q-1 1 -1 3q-1 1 -1 3q-1 1 -1 3v2q0 5 1 8q2 4 4 6q3 3 5 4l6 3
q1 0 3 1l3 1q4 0 7 1h6q4 0 7 1zM450 79q4 -6 6 -10q0 -2 1 -4.5t2 -4.5t1 -4q1 -5 3 -13q1 -4 1 -11v-9v-19v-17v-8q0 -10 -3 -17q-6 -10 -10 -13q-6 -6 -13 -9q-7 -4 -17 -4h-331q-9 0 -16 4q-8 3 -14 9q-5 4 -9 13q-3 7 -3 17v8v17v19v9q0 7 1 11q2 8 3 13q2 8 4 13
q1 5 6 10l9 12q7 7 11 10q7 7 11 10q2 2 6 4.5t6 3.5q11 -23 25 -40t35 -30q17 -12 43 -20q24 -8 48 -8t48 8q27 9 43 20q17 11 35 30q15 18 24 40q12 -7 13 -8q7 -7 11 -10l10 -10q2 -2 5.5 -6t4.5 -6z" />
    <glyph glyph-name="uniF175" unicode="&#xf175;" 
d="M439 76l21 -3l17 -1l-4 -33l-18 2l-14 1zM446 98l-2 142l14 -2q3 -1 6.5 -1t7.5 -0.5t7 -0.5q2 0 4 -0.5t4.5 -0.5h4.5t4 -0.5t4 -0.5q6 -1 12 -1l-37 -138zM411 270h2q-7 -2 -26 -16q-40 -31 -44 -34q-24 -20 -43 -37q-17 -17 -23 -27v-16q-1 -13 0 -28q1 -11 1 -29
q0 -12 2 -18q1 -1 12 -1h23h22q12 0 14 -1v-22h-18h-31h-36h-34h-22q-10 -1 -30 -1h-30q-10 -1 -22 -1l3 22h14q13 0 20 1q8 0 20 2q10 2 13 5q0 1 2 14q1 8 1 27q-1 10 -1 28q0 14 -1 17q-2 6 -18 28q-32 40 -39 49q-28 34 -42 50q-27 28 -31 32h-69l1 31h227l1 -2h1h-1v-5
l-1 -24h-68q7 -11 25 -35q3 -5 12 -16.5t14 -17.5q16 -22 24 -31q12 -16 18 -25l92 83h-56l-7 32h200l-1 -2v0q2 0 0 0l-14 -21v0h-1l-5 -9h-38h-2q-2 -1 -4 -1h-2q-1 -1 -3 -1h-1z" />
    <glyph glyph-name="uniF176" unicode="&#xf176;" 
d="M0 448zM416 384q40 0 68 -28t28 -68v-192q0 -40 -28 -68t-68 -28h-320q-40 0 -68 28t-28 68v192q0 40 28 68t68 28h320zM192 64l160 128l-160 128v-256z" />
  </font>
</defs>
</svg>
